<svg preserveAspectRatio="none" width="100%" height="100%" overflow="visible" style="display: block;" viewBox="0 0 518.193 440.841" fill="none" xmlns="http://www.w3.org/2000/svg">
<g id="stars">
<circle id="Ellipse" cx="288.196" cy="90.3577" r="2.10379" transform="rotate(-180 288.196 90.3577)" fill="var(--fill-0, #36D3C0)" fill-opacity="0.15"/>
<circle id="Ellipse_2" cx="355.512" cy="73.5281" r="2.10379" transform="rotate(-180 355.512 73.5281)" fill="var(--fill-0, #36D3C0)" fill-opacity="0.6"/>
<circle id="Ellipse_3" cx="58.2828" cy="85.2893" r="2.10379" transform="rotate(-180 58.2828 85.2893)" fill="var(--fill-0, #36D3C0)" fill-opacity="0.3"/>
<circle id="Ellipse_4" cx="24.198" cy="291.516" r="3.15525" transform="rotate(-180 24.198 291.516)" fill="var(--fill-0, #36D3C0)" fill-opacity="0.3"/>
<circle id="Ellipse_5" cx="163.565" cy="329.886" r="3.15525" transform="rotate(-180 163.565 329.886)" fill="var(--fill-0, #36D3C0)" fill-opacity="0.3"/>
<circle id="Ellipse_6" cx="216.323" cy="80.1905" r="3.15525" transform="rotate(-180 216.323 80.1905)" fill="var(--fill-0, #36D3C0)" fill-opacity="0.15"/>
<circle id="Ellipse_7" cx="76.0817" cy="363.478" r="3.15525" transform="rotate(-180 76.0817 363.478)" fill="var(--fill-0, #36D3C0)" fill-opacity="0.1"/>
<circle id="Ellipse_8" cx="147.033" cy="303.377" r="3.15525" transform="rotate(-180 147.033 303.377)" fill="var(--fill-0, #36D3C0)" fill-opacity="0.15"/>
<circle id="Ellipse_9" cx="75.6953" cy="156.529" r="3.15525" transform="rotate(-180 75.6953 156.529)" fill="var(--fill-0, #36D3C0)" fill-opacity="0.1"/>
<circle id="Ellipse_10" cx="15.7173" cy="114.736" r="3.15525" transform="rotate(-180 15.7173 114.736)" fill="var(--fill-0, #36D3C0)" fill-opacity="0.3"/>
<circle id="Ellipse_11" opacity="0.8" cx="140.593" cy="21.2877" r="3.15525" transform="rotate(-180 140.593 21.2877)" fill="var(--fill-0, #36D3C0)" fill-opacity="0.772549"/>
<circle id="Ellipse_12" cx="466.654" cy="411.862" r="1.05146" transform="rotate(-180 466.654 411.862)" fill="var(--fill-0, #36D3C0)" fill-opacity="0.15"/>
<circle id="Ellipse_13" cx="371.058" cy="364.114" r="1.05146" transform="rotate(-180 371.058 364.114)" fill="var(--fill-0, #36D3C0)" fill-opacity="0.3"/>
<circle id="Ellipse_14" cx="474.601" cy="281.799" r="1.05146" transform="rotate(-180 474.601 281.799)" fill="var(--fill-0, #36D3C0)" fill-opacity="0.1"/>
<circle id="Ellipse_15" cx="226.513" cy="188.082" r="1.05146" transform="rotate(-180 226.513 188.082)" fill="var(--fill-0, #36D3C0)" fill-opacity="0.3"/>
<circle id="Ellipse_16" cx="457.511" cy="331.19" r="1.05146" transform="rotate(-180 457.511 331.19)" fill="var(--fill-0, #36D3C0)" fill-opacity="0.6"/>
<circle id="Ellipse_17" cx="156.595" cy="344.775" r="1.05146" transform="rotate(-180 156.595 344.775)" fill="var(--fill-0, #36D3C0)" fill-opacity="0.1"/>
<circle id="Ellipse_18" cx="125.128" cy="57.8666" r="1.05146" transform="rotate(-180 125.128 57.8666)" fill="var(--fill-0, #36D3C0)" fill-opacity="0.15"/>
<circle id="Ellipse_19" cx="155.428" cy="236.138" r="1.05146" transform="rotate(-180 155.428 236.138)" fill="var(--fill-0, #36D3C0)" fill-opacity="0.1"/>
<circle id="Ellipse_20" cx="483.483" cy="128.573" r="1.05146" transform="rotate(-180 483.483 128.573)" fill="var(--fill-0, #36D3C0)" fill-opacity="0.3"/>
<circle id="Ellipse_21" cx="344.138" cy="439.789" r="1.05146" transform="rotate(-180 344.138 439.789)" fill="var(--fill-0, #36D3C0)" fill-opacity="0.3"/>
<circle id="Ellipse_22" cx="334.414" cy="162.911" r="1.05146" transform="rotate(-180 334.414 162.911)" fill="var(--fill-0, #36D3C0)" fill-opacity="0.772549"/>
<circle id="Ellipse_23" cx="517.141" cy="204.304" r="1.05146" transform="rotate(-180 517.141 204.304)" fill="var(--fill-0, #36D3C0)" fill-opacity="0.15"/>
<circle id="Ellipse_24" cx="29.1007" cy="212.718" r="1.05146" transform="rotate(-180 29.1007 212.718)" fill="var(--fill-0, #36D3C0)" fill-opacity="0.1"/>
<circle id="Ellipse_25" cx="90.2459" cy="275.169" r="1.05146" transform="rotate(-180 90.2459 275.169)" fill="var(--fill-0, #36D3C0)" fill-opacity="0.3"/>
<circle id="Ellipse_26" cx="428.625" cy="23.8968" r="1.05146" transform="rotate(-180 428.625 23.8968)" fill="var(--fill-0, #36D3C0)" fill-opacity="0.1"/>
<circle id="Ellipse_27" cx="332.077" cy="286.433" r="1.05146" transform="rotate(-180 332.077 286.433)" fill="var(--fill-0, #36D3C0)" fill-opacity="0.15"/>
<circle id="Ellipse_28" cx="107.636" cy="86.5013" r="1.05146" transform="rotate(-180 107.636 86.5013)" fill="var(--fill-0, #36D3C0)" fill-opacity="0.3"/>
<circle id="Ellipse_29" cx="332.011" cy="142.296" r="1.05146" transform="rotate(-180 332.011 142.296)" fill="var(--fill-0, #36D3C0)" fill-opacity="0.1"/>
<circle id="Ellipse_30" cx="363.823" cy="154.967" r="1.05146" transform="rotate(-180 363.823 154.967)" fill="var(--fill-0, #36D3C0)" fill-opacity="0.3"/>
<circle id="Ellipse_31" cx="23.4911" cy="179.06" r="1.05146" transform="rotate(-180 23.4911 179.06)" fill="var(--fill-0, #36D3C0)" fill-opacity="0.15"/>
<circle id="Ellipse_32" cx="299.745" cy="3.51207" r="1.05146" transform="rotate(-180 299.745 3.51207)" fill="var(--fill-0, #36D3C0)" fill-opacity="0.1"/>
<circle id="Ellipse_33" cx="284.59" cy="75.994" r="1.05146" transform="rotate(-180 284.59 75.994)" fill="var(--fill-0, #36D3C0)" fill-opacity="0.1"/>
<circle id="Ellipse_34" cx="15.0767" cy="400.643" r="1.05146" transform="rotate(-180 15.0767 400.643)" fill="var(--fill-0, #36D3C0)" fill-opacity="0.3"/>
<circle id="Ellipse_35" cx="84.3045" cy="10.1742" r="1.05146" transform="rotate(-180 84.3045 10.1742)" fill="var(--fill-0, #36D3C0)" fill-opacity="0.1"/>
<path id="Polygon" d="M512.583 64.4127L510.761 61.257L514.405 61.257L512.583 64.4127Z" fill="var(--fill-0, #36D3C0)" fill-opacity="0.6"/>
<circle id="Ellipse_36" cx="144.099" cy="159.427" r="1.05146" transform="rotate(-180 144.099 159.427)" fill="var(--fill-0, #36D3C0)" fill-opacity="0.1"/>
<path id="Polygon_2" d="M2.10384 55.9971L0.281908 52.8414L3.92577 52.8414L2.10384 55.9971Z" fill="var(--fill-0, #36D3C0)" fill-opacity="0.1"/>
<path id="Star" d="M4.22091 4.20757L3.77462 2.55007L2.11712 2.10379L3.77463 1.65751L4.22091 0L4.66719 1.65751L6.32469 2.10379L4.66719 2.55007L4.22091 4.20757Z" fill="var(--fill-0, #36D3C0)" fill-opacity="0.1"/>
<path id="Star_2" d="M422.828 81.2408L422.382 79.5833L420.724 79.137L422.382 78.6907L422.828 77.0332L423.275 78.6907L424.932 79.137L423.275 79.5833L422.828 81.2408Z" fill="var(--fill-0, #36D3C0)" fill-opacity="0.6"/>
<path id="Star_3" d="M263.517 170.794L263.071 169.137L261.414 168.69L263.071 168.244L263.517 166.586L263.964 168.244L265.621 168.69L263.964 169.137L263.517 170.794Z" fill="var(--fill-0, #36D3C0)" fill-opacity="0.1"/>
<path id="Star_4" d="M363.927 16.7305L363.481 15.073L361.823 14.6267L363.481 14.1805L363.927 12.5229L364.373 14.1805L366.031 14.6267L364.373 15.073L363.927 16.7305Z" fill="var(--fill-0, #36D3C0)" fill-opacity="0.8"/>
<path id="Star_5" d="M334.824 321.269L334.378 319.611L332.72 319.165L334.378 318.719L334.824 317.061L335.27 318.719L336.928 319.165L335.27 319.611L334.824 321.269Z" fill="var(--fill-0, #36D3C0)" fill-opacity="0.15"/>
<path id="Star_6" d="M155.178 114.45L154.732 112.793L153.074 112.346L154.732 111.9L155.178 110.243L155.624 111.9L157.282 112.346L155.624 112.793L155.178 114.45Z" fill="var(--fill-0, #36D3C0)" fill-opacity="0.3"/>
<circle id="Ellipse_37" cx="511.532" cy="139.792" r="1.05146" transform="rotate(-180 511.532 139.792)" fill="var(--fill-0, #36D3C0)" fill-opacity="0.3"/>
</g>
</svg>
