<svg width="512" height="512" viewBox="0 0 512 512" fill="none" xmlns="http://www.w3.org/2000/svg">
<g clip-path="url(#clip0_255_2436)">
<rect width="512" height="512" fill="white"/>
<rect width="512" height="512" fill="black"/>
<path d="M188.32 199.239H85.701C82.5541 199.239 80 201.795 80 204.944V256.289C80 287.792 105.529 313.339 137.01 313.339C168.492 313.339 194.021 287.792 194.021 256.289V204.944C194.021 201.795 191.467 199.239 188.32 199.239Z" fill="white"/>
<path d="M307.051 199C278.717 199 255.741 216.275 255.741 244.64C255.741 216.275 232.766 199 204.432 199C201.285 199 198.731 201.556 198.731 204.705V307.395C198.731 310.544 201.285 313.1 204.432 313.1H307.051C310.198 313.1 312.752 310.544 312.752 307.395V204.705C312.752 201.556 310.198 199 307.051 199Z" fill="white"/>
<path d="M431.16 307.493V204.803C431.16 201.654 428.606 199.098 425.459 199.098H374.15C342.668 199.098 317.139 224.645 317.139 256.148C317.139 287.651 342.668 313.198 374.15 313.198H425.459C428.606 313.198 431.16 310.642 431.16 307.493Z" fill="white"/>
</g>
<defs>
<clipPath id="clip0_255_2436">
<rect width="512" height="512" fill="white"/>
</clipPath>
</defs>
</svg>
