<svg width="30" height="30" viewBox="0 0 30 30" fill="none" xmlns="http://www.w3.org/2000/svg">
<path d="M22 3C24.7614 3 27 5.23858 27 8V22C27 24.7614 24.7614 27 22 27H8L7.74316 26.9932C5.10111 26.8595 3 24.6753 3 22V8C3 5.32472 5.10111 3.14053 7.74316 3.00684L8 3H22ZM8 5C6.34315 5 5 6.34315 5 8V22C5 23.6569 6.34315 25 8 25H22C23.6569 25 25 23.6569 25 22V8C25 6.34315 23.6569 5 22 5H8ZM20.8945 9.69141C21.2492 9.26834 21.8805 9.21295 22.3037 9.56738C22.727 9.92202 22.7822 10.5532 22.4277 10.9766L14.6074 20.3096C14.4175 20.5361 14.1374 20.6669 13.8418 20.667C13.546 20.667 13.2652 20.5362 13.0752 20.3096L7.56152 13.7295C7.20722 13.3063 7.26272 12.676 7.68555 12.3213C8.1088 11.9668 8.74005 12.0222 9.09473 12.4453L13.8408 18.1104L20.8945 9.69141Z" fill="#656B6B"/>
</svg>
