<svg width="30" height="30" viewBox="0 0 30 30" fill="none" xmlns="http://www.w3.org/2000/svg">
<path d="M21.2686 4C22.9252 4.00013 24.2684 5.34335 24.2686 7V10.0078C24.9321 10.0964 25.5317 10.3748 26.0371 10.8457C26.6605 11.4267 27.0017 12.1697 27.001 13.0244L26.9971 22.9473C26.9968 23.8013 26.6567 24.5448 26.0342 25.126C25.4129 25.7059 24.6486 25.9967 23.7979 25.9961H14.3066C12.3743 25.9961 10.8076 24.4303 10.8066 22.498L10.8057 20.043V18.0713L9.39258 19.2686C8.97106 19.6254 8.33927 19.5729 7.98242 19.1514C7.62611 18.7299 7.67833 18.0989 8.09961 17.7422L11.2051 15.1133C11.5778 14.7979 12.1243 14.798 12.4971 15.1133L15.6025 17.7422C16.0239 18.0989 16.0762 18.7299 15.7197 19.1514C15.3629 19.5729 14.7321 19.6254 14.3105 19.2686L12.8057 17.9941V20.042L12.8066 22.4971C12.8071 23.3252 13.4785 23.9961 14.3066 23.9961H23.7988C24.1586 23.9965 24.4299 23.887 24.6689 23.6641C24.9068 23.442 24.9971 23.2192 24.9971 22.9463L25.001 13.0234V13.0225C25.0012 12.7519 24.9122 12.5307 24.6738 12.3086C24.4332 12.0845 24.1609 11.9746 23.8018 11.9746H15.0029C14.7515 11.9746 14.5089 11.8795 14.3242 11.709L12.4111 9.94238H6.2041L6.07324 9.94727C5.77715 9.97163 5.54205 10.0811 5.33105 10.2773C5.09313 10.4987 5.003 10.7201 5.00293 10.9922L5 22.9463C5.00062 23.22 5.09124 23.4422 5.32812 23.6631C5.56773 23.8864 5.84039 23.9961 6.2002 23.9961H7.64844C8.20052 23.9962 8.6482 24.4441 8.64844 24.9961C8.64844 25.5483 8.20066 25.996 7.64844 25.9961H6.2002C5.35015 25.9961 4.58607 25.7049 3.96484 25.126C3.34168 24.5451 3.00111 23.8015 3 22.9473V22.9463L3.00293 10.9922C3.00302 10.1372 3.34455 9.39318 3.96875 8.8125C4.44063 8.37368 4.99438 8.10072 5.60547 7.99414V7C5.60561 5.34327 6.9487 4 8.60547 4H21.2686ZM8.60547 6C8.05327 6 7.60561 6.44784 7.60547 7V7.94238H12.8018C13.0531 7.94238 13.2958 8.03755 13.4805 8.20801L15.3936 9.97461H22.2686V7C22.2684 6.44792 21.8206 6.00013 21.2686 6H8.60547Z" fill="#656B6B"/>
</svg>
