<svg width="192" height="180" viewBox="0 0 192 180" fill="none" xmlns="http://www.w3.org/2000/svg">
<g id="Group 2087330818">
<g id="Vector 4025">
<path d="M89.6203 13.7926L26.623 161.08H164.416L101.419 13.7926C99.1988 8.60187 91.8405 8.60188 89.6203 13.7926Z" fill="var(--fill-0, white)"/>
<path d="M89.6203 13.7926L26.623 161.08H164.416L101.419 13.7926C99.1988 8.60187 91.8405 8.60188 89.6203 13.7926Z" fill="url(#paint0_linear_0_5)" fill-opacity="0.2"/>
</g>
<rect id="Rectangle 160125" y="160.937" width="192" height="19.0626" rx="9.53129" fill="var(--fill-0, #0E8179)"/>
<path id="Subtract" d="M161.179 153.515C160.597 153.387 160.516 153.171 160.544 152.501L160.515 152.448C160.105 152.776 160.146 152.788 159.578 152.89C158.874 152.997 158.327 153.331 157.897 153.879C157.754 154.062 157.57 154.233 157.415 154.457C157.636 154.926 157.816 155.385 157.995 155.842C158.216 156.312 158.527 156.629 159.046 156.692C159.607 156.767 160.185 156.938 160.614 156.39C160.692 156.278 160.881 156.244 161.029 156.198C161.49 156.154 161.669 155.847 161.696 155.451C161.719 155.292 161.77 155.166 161.839 155.058L164.416 161.084H102.56C102.638 161.041 102.698 161.001 102.738 160.943C102.869 160.802 102.794 160.599 102.642 160.509C102.501 160.378 102.192 160.512 102.185 160.69C102.188 160.78 102.26 160.966 102.309 161.084H89.9727C89.9647 161.083 89.957 161.083 89.9492 161.084H84.0107C84.026 160.696 83.8456 160.359 83.5645 160.276L83.5225 160.263C83.0808 160.088 82.5833 160.257 82.4619 160.67C82.4088 160.813 82.3819 160.953 82.3799 161.084H68.3262C68.3798 161.045 68.4217 160.996 68.4385 160.939C68.5526 160.703 68.419 160.394 68.0889 160.296C67.982 160.355 67.7929 160.389 67.7031 160.542C67.5803 160.719 67.6654 160.955 67.8281 161.084H26.623L35.6797 139.91H127.991C127.986 139.936 127.981 139.968 127.979 140.007C128.001 139.996 128.023 139.954 128.042 139.91H144.586C144.64 140.016 144.736 140.097 144.847 140.129C145.022 140.145 145.227 140.053 145.333 139.91H155.359L161.179 153.515ZM69.3906 160.14C69.2961 160.157 69.1066 160.191 69.082 160.274C69.0296 160.303 69.2251 160.665 69.2324 160.678C69.3633 160.537 69.4823 160.438 69.5068 160.355C69.519 160.314 69.3906 160.14 69.3906 160.14ZM120.09 159.722C120.009 159.698 119.739 159.879 119.729 159.885L119.675 159.915C119.815 160.046 119.903 160.207 119.985 160.231C120.15 160.28 120.376 160.122 120.33 159.973C120.313 159.878 120.172 159.747 120.09 159.722ZM113.96 159.982C113.837 159.946 113.813 160.028 113.765 160.193C113.847 160.217 114.035 160.183 114.035 160.183C114.018 160.089 113.961 159.984 113.96 159.982ZM139.959 159.35C139.797 159.471 139.697 159.527 139.685 159.567C139.673 159.608 139.771 159.726 139.812 159.739C139.854 159.751 139.972 159.652 139.984 159.611C140.001 159.555 139.976 159.428 139.959 159.35ZM74.209 158.999C74.0854 158.962 73.9666 159.061 73.8721 159.079C73.9303 159.186 73.9226 159.364 74.0049 159.388C74.074 159.453 74.4129 159.337 74.4248 159.333L74.4668 159.344C74.3382 159.171 74.2915 159.023 74.209 158.999ZM91.6035 159.005C91.492 158.928 91.3324 159.015 91.2959 159.139C91.2716 159.222 91.3591 159.383 91.4004 159.395C91.5361 159.39 91.6308 159.373 91.9678 159.292L91.9268 159.281C91.7447 159.137 91.686 159.03 91.6035 159.005ZM139.959 159.35C139.964 159.346 139.969 159.343 139.975 159.339L139.945 159.286C139.945 159.286 139.951 159.312 139.959 159.35ZM152.254 158.601C152.101 158.511 151.863 158.71 151.814 158.876C151.766 159.041 151.883 159.256 152.089 159.317C152.297 159.335 152.461 159.218 152.55 158.956C152.492 158.848 152.417 158.649 152.254 158.601ZM102.641 158.979C102.571 158.914 102.541 158.861 102.341 158.936C102.371 158.989 102.641 158.979 102.641 158.979ZM152.55 158.956C152.55 158.957 152.551 158.957 152.552 158.959L152.564 158.917C152.561 158.931 152.554 158.943 152.55 158.956ZM66.9824 158.26C66.8295 158.17 66.6277 158.245 66.5791 158.411C66.4772 158.605 66.6236 158.873 66.8008 158.88C66.9248 158.917 67.2979 158.712 67.2979 158.712C67.1403 158.486 67.1061 158.297 66.9824 158.26ZM99.6973 157.706C99.6171 158.132 100.071 158.266 100.151 158.605C100.169 158.7 100.321 158.79 100.444 158.827C100.568 158.863 100.799 158.841 100.823 158.758C100.954 158.617 101.027 158.369 101.088 158.162C101.124 158.037 100.896 157.745 100.896 157.745C100.447 157.747 100.093 157.732 99.6973 157.706ZM106.571 158.116C106.453 158.215 106.358 158.232 106.334 158.314C106.322 158.355 106.368 158.504 106.45 158.528C106.491 158.54 106.639 158.494 106.663 158.412C106.687 158.331 106.576 158.125 106.571 158.116ZM128.731 157.775C128.637 157.792 128.519 157.892 128.494 157.974C128.482 158.016 128.611 158.189 128.693 158.213C128.788 158.196 129.062 158.011 129.066 158.008L129.014 158.038C128.873 157.906 128.814 157.799 128.731 157.775ZM145.993 157.472C145.901 157.489 145.853 157.646 145.851 157.654C145.892 157.666 145.933 157.678 145.993 157.472ZM61.3652 156.466C61.1178 156.394 60.8384 156.581 60.7656 156.83C60.7341 157.09 60.8679 157.399 61.1152 157.472C61.3506 157.587 61.6298 157.4 61.7148 157.11L61.6738 157.097C61.7587 156.807 61.6127 156.539 61.3652 156.466ZM83.4189 156.184C83.2951 156.148 83.0935 156.223 82.9746 156.323C82.8436 156.464 82.8243 156.683 82.8994 156.885C82.9746 157.087 83.1154 157.219 83.3457 157.198C83.6709 157.159 84.0086 157.078 84.4404 156.981L84.4824 156.993C84.4777 156.859 84.4728 156.726 84.4727 156.72C84.1256 156.528 83.7903 156.294 83.4189 156.184ZM131.703 156.358C131.531 156.487 131.341 156.521 131.305 156.645C131.28 156.728 131.368 156.889 131.438 156.955C131.538 157.074 131.763 156.916 131.8 156.792C131.836 156.669 131.707 156.367 131.703 156.358ZM129.793 156.604C129.698 156.621 129.633 156.691 129.538 156.709C129.567 156.762 129.613 156.91 129.654 156.922C129.737 156.947 129.844 156.889 130.128 156.837C129.946 156.694 129.875 156.628 129.793 156.604ZM136.376 155.713C136.087 155.628 135.767 155.803 135.682 156.092C135.638 156.394 135.784 156.663 136.031 156.736C136.32 156.821 136.641 156.646 136.726 156.356C136.798 156.108 136.623 155.787 136.376 155.713ZM148.211 156.327C148.1 156.249 148.082 156.155 147.841 156.218C147.87 156.272 147.875 156.407 147.957 156.431C147.998 156.443 148.211 156.327 148.211 156.327ZM149.166 155.98C149.154 156.022 149.2 156.169 149.241 156.181C149.271 156.233 149.514 156.134 149.523 156.13L149.536 156.088C149.413 156.052 149.396 155.958 149.166 155.98ZM69.2383 155.461C69.0199 155.442 68.9001 155.542 68.8516 155.708C68.803 155.873 69.0025 156.112 69.1797 156.12C69.3127 156.115 69.5315 155.963 69.541 155.957C69.5726 155.696 69.4033 155.51 69.2383 155.461ZM83.4775 154.762C83.2713 154.701 82.9749 154.794 82.9141 155.001C82.7879 155.278 82.9212 155.587 83.251 155.685C83.4572 155.746 83.7122 155.641 83.7852 155.393C83.8701 155.103 83.725 154.835 83.4775 154.762ZM66.5312 154.752C66.3252 154.692 66.1648 154.779 66.1162 154.945C66.0676 155.11 66.2012 155.42 66.2012 155.42L66.2549 155.391C66.5314 155.518 66.7448 155.401 66.8057 155.194C66.8542 155.028 66.7376 154.813 66.5312 154.752ZM122.168 153.858C122.003 153.81 121.777 153.968 121.729 154.133C121.668 154.34 121.814 154.608 122.003 154.574C122.189 154.54 122.411 154.386 122.418 154.381C122.503 154.092 122.333 153.907 122.168 153.858ZM66.0732 152.953C65.8378 152.838 65.5172 153.014 65.4443 153.262C65.3594 153.552 65.5464 153.832 65.7939 153.905C66.0413 153.978 66.2962 153.874 66.3691 153.626C66.4541 153.336 66.3206 153.026 66.0732 152.953ZM138.745 152.678C138.396 152.8 138.053 152.744 137.687 152.771C137.551 152.776 137.313 152.976 137.265 153.141C137.163 153.336 137.238 153.538 137.42 153.682C137.602 153.826 137.808 153.886 137.98 153.757C138.272 153.528 138.575 153.258 139.015 152.983C138.915 152.864 138.786 152.69 138.745 152.678ZM107.542 152.509C107.436 152.567 107.33 152.625 107.306 152.708C107.257 152.872 107.439 153.016 107.545 152.958C107.639 152.94 107.675 152.817 107.699 152.735C107.711 152.694 107.542 152.509 107.542 152.509ZM152.701 152.03C152.495 151.969 152.228 152.115 152.167 152.322C152.106 152.529 152.252 152.797 152.458 152.858C152.664 152.919 152.931 152.773 152.992 152.566C153.094 152.371 152.949 152.103 152.701 152.03ZM69.002 152.289C68.8836 152.388 68.7888 152.405 68.7236 152.475C68.7816 152.582 68.828 152.73 68.9512 152.766C68.9926 152.778 69.1641 152.649 69.1641 152.649C69.1591 152.516 69.0088 152.298 69.002 152.289ZM139.869 151.751C139.622 151.678 139.378 151.741 139.306 151.99C139.192 152.226 139.284 152.522 139.49 152.584C139.684 152.686 140.035 152.564 140.107 152.316C140.168 152.109 140.022 151.841 139.815 151.78L139.869 151.751ZM145.45 152.138C145.385 152.208 145.278 152.267 145.266 152.308C145.241 152.391 145.341 152.51 145.382 152.522C145.464 152.546 145.583 152.446 145.595 152.405C145.606 152.364 145.496 152.16 145.491 152.151L145.45 152.138ZM138.197 151.032C137.962 150.917 137.641 151.093 137.568 151.341C137.466 151.536 137.6 151.846 137.806 151.907C138.041 152.021 138.35 151.887 138.435 151.597C138.507 151.349 138.404 151.093 138.197 151.032ZM146.453 150.86C146.193 150.828 145.967 150.987 145.906 151.194C145.846 151.401 146.074 151.693 146.264 151.659C146.409 151.613 146.642 151.42 146.649 151.414L146.69 151.425C146.746 151.082 146.659 150.921 146.453 150.86ZM74.1514 150.479C73.9041 150.406 73.6662 150.606 73.6465 150.825C73.627 151.044 73.7973 151.229 74.0449 151.302C74.2483 151.362 74.4778 151.037 74.4844 151.028C74.516 150.767 74.3577 150.54 74.1514 150.479ZM96.8291 148.222C96.4043 148.142 95.8949 148.351 95.7734 148.765C95.5501 149.374 95.8457 150.046 96.3408 150.192C96.7122 150.302 97.2707 149.927 97.4043 149.471L97.416 149.43C97.5787 149.028 97.2417 148.344 96.8291 148.222ZM77.1758 149.033C77.1102 149.103 76.9212 149.138 76.8848 149.262C76.8486 149.386 76.924 149.588 77.0234 149.708C77.123 149.827 77.4065 149.775 77.4551 149.61C77.5569 149.415 77.4938 149.172 77.2051 149.086L77.1758 149.033ZM104.056 148.96C103.861 148.858 103.611 149.1 103.592 149.319C103.572 149.538 103.772 149.777 103.961 149.743C104.109 149.696 104.494 149.451 104.495 149.451L104.466 149.397C104.296 149.212 104.221 149.009 104.056 148.96ZM63.8643 149.017C63.7697 149.034 63.6223 149.08 63.5566 149.151C63.4669 149.304 63.5293 149.548 63.7354 149.609C63.8883 149.699 64.127 149.5 64.127 149.5L64.085 149.487C64.1456 149.28 64.0705 149.078 63.8643 149.017ZM117.979 148.573C117.844 148.578 117.724 148.677 117.7 148.76C117.664 148.883 117.863 149.251 117.867 149.259L117.908 149.272C118.051 149.089 118.212 149.002 118.249 148.877C118.339 148.724 118.128 148.527 117.979 148.573ZM119.615 148.651C119.497 148.75 119.461 148.873 119.437 148.956C119.424 148.997 119.523 149.116 119.605 149.14C119.671 149.07 119.789 148.971 119.813 148.888C119.825 148.848 119.623 148.658 119.615 148.651ZM62.5889 148.775C62.5068 148.751 62.4126 148.768 62.3643 148.933C62.4442 148.957 62.602 149.003 62.6104 149.005C62.5646 148.858 62.5889 148.775 62.5889 148.775ZM136.38 145.458C135.62 145.143 134.552 145.727 134.416 146.497C134.236 147.568 135.246 148.406 136.253 148.029C136.496 147.966 136.668 147.837 136.882 147.72C137.083 147.645 137.243 147.557 137.403 147.469C138.146 148.453 138.229 148.477 138.787 148.102L138.746 148.09C138.564 147.947 138.287 147.82 138.158 147.647C137.831 147.235 137.545 146.835 137.365 146.377C137.198 145.879 136.821 145.633 136.38 145.458ZM68.9551 147.101C68.8556 146.982 68.6663 147.016 68.6299 147.14C68.6057 147.223 68.5986 147.401 68.6689 147.466C68.7397 147.531 69.102 147.506 69.1055 147.505C69.0303 147.303 69.0253 147.167 68.9551 147.101ZM100.24 146.53C100.046 146.427 99.8615 146.598 99.8008 146.805C99.7815 147.024 99.8859 147.28 100.075 147.246C100.25 147.252 100.626 147.015 100.638 147.007C100.48 146.781 100.405 146.579 100.24 146.53ZM156.964 145.596C156.646 145.458 156.297 145.579 156.212 145.869C156.086 146.146 156.207 146.497 156.483 146.624C156.789 146.804 157.192 146.653 157.289 146.322C157.415 146.044 157.253 145.681 156.964 145.596ZM102.007 146.466C102.024 146.561 102.229 146.622 102.229 146.622C102.213 146.527 102.212 146.527 102.007 146.466ZM129.631 146.299C129.549 146.275 129.471 146.386 129.418 146.416C129.488 146.481 129.505 146.576 129.587 146.6C129.628 146.612 129.838 146.497 129.841 146.496C129.73 146.418 129.713 146.324 129.631 146.299ZM94.0498 146.232C94.0258 146.314 94.0425 146.408 94.0186 146.491C94.1008 146.515 94.3301 146.494 94.3301 146.494L94.3418 146.453C94.2959 146.305 94.2551 146.293 94.0498 146.232ZM124.721 145.614C124.461 145.582 124.181 145.77 124.108 146.018C124.06 146.184 124.201 146.316 124.366 146.365C124.655 146.45 124.868 146.332 124.953 146.042L124.982 146.096C125.002 145.877 124.886 145.663 124.721 145.614ZM119.225 145.702C119.142 145.677 119.082 145.883 119.082 145.883C119.123 145.895 119.164 145.907 119.225 145.702ZM151.31 144.692C151.228 144.668 151.151 144.778 151.057 144.795C151.115 144.902 151.131 144.997 151.213 145.021C151.294 145.045 151.501 144.933 151.508 144.929C151.409 144.81 151.351 144.704 151.31 144.692ZM98.3721 144.179C98.29 144.155 98.1434 144.201 98.1309 144.242C98.1189 144.282 98.22 144.531 98.2227 144.538L98.2637 144.55C98.2999 144.427 98.3937 144.409 98.3721 144.179ZM146.791 143.132C146.502 143.047 146.223 143.235 146.126 143.566C146.029 143.897 146.175 144.165 146.505 144.262C146.847 144.318 147.126 144.131 147.211 143.841C147.255 143.539 147.08 143.218 146.791 143.132ZM89.75 143.613C89.6437 143.671 89.5082 143.676 89.4961 143.717C89.472 143.8 89.5185 143.947 89.5596 143.959C89.6415 143.984 89.788 143.938 89.8008 143.897C89.8129 143.856 89.75 143.613 89.75 143.613ZM137.288 143.431C137.123 143.382 136.951 143.511 136.943 143.689C136.919 143.772 137.089 143.958 137.089 143.958C137.195 143.9 137.509 143.727 137.516 143.723L137.558 143.736C137.417 143.605 137.37 143.456 137.288 143.431ZM71.0459 142.725C70.7158 142.628 70.4073 142.761 70.3223 143.051C70.2666 143.395 70.4415 143.716 70.7715 143.813C71.0724 143.857 71.3394 143.711 71.4365 143.379C71.4921 143.036 71.3052 142.757 71.0166 142.671L71.0459 142.725ZM86.1436 143.223C86.0609 143.199 85.8885 143.328 85.8643 143.411C85.8158 143.576 85.916 143.696 86.0811 143.745C86.2034 143.78 86.4761 143.598 86.4834 143.593C86.3548 143.42 86.2673 143.26 86.1436 143.223ZM92.4268 143.053C92.3855 143.041 92.2421 143.224 92.2178 143.307C92.1939 143.39 92.3346 143.521 92.417 143.545C92.5001 143.569 92.832 143.353 92.832 143.353C92.6501 143.209 92.5504 143.09 92.4268 143.053ZM154.027 142.615C153.78 142.542 153.554 142.7 153.481 142.948C153.421 143.155 153.537 143.369 153.743 143.43C153.979 143.545 154.234 143.44 154.307 143.192L154.318 143.151C154.379 142.944 154.275 142.688 154.027 142.615ZM68.6191 142.839C68.5558 142.895 68.4788 142.915 68.4678 142.953C68.4968 143.006 68.5669 143.071 68.7549 143.038C68.7138 142.962 68.6516 142.881 68.6191 142.839ZM145.791 141.038C145.201 140.909 144.52 141.247 144.456 141.768C144.352 142.277 144.755 142.891 145.221 142.984C145.769 143.101 146.368 142.738 146.502 142.283L146.531 142.336C146.636 141.827 146.245 141.172 145.791 141.038ZM75.9482 142.058C75.8123 142.063 75.5989 142.18 75.5625 142.304C75.461 142.499 75.6356 142.82 75.8418 142.881C76.0059 142.93 76.278 142.61 76.2812 142.606L76.293 142.565C76.3124 142.346 76.1789 142.036 75.9482 142.058ZM68.6191 142.839C68.6254 142.834 68.6338 142.83 68.6396 142.824L68.5977 142.812C68.5977 142.812 68.6058 142.822 68.6191 142.839ZM114.349 142.148C114.254 142.165 114.094 142.253 114.069 142.335C114.046 142.418 114.173 142.59 114.256 142.615C114.338 142.639 114.618 142.452 114.618 142.452L114.63 142.411C114.489 142.279 114.431 142.172 114.349 142.148ZM130.727 141.495C130.574 141.405 130.294 141.592 130.328 141.782C130.386 141.888 130.597 142.214 130.603 142.222L130.591 142.264C130.734 142.082 130.894 141.994 130.931 141.87C131.02 141.716 130.892 141.543 130.727 141.495ZM65.4355 141.518C65.2294 141.457 65.0275 141.533 64.9668 141.74C64.9061 141.947 64.9822 142.15 65.1885 142.21C65.3536 142.259 65.6494 142.167 65.6494 142.167C65.7757 141.889 65.6419 141.579 65.4355 141.518ZM71.1221 141.083C71.0158 141.141 70.9216 141.158 70.8975 141.241C70.8857 141.282 70.9318 141.429 71.0137 141.454C71.1248 141.531 71.2841 141.444 71.2793 141.308C71.25 141.254 71.1221 141.083 71.1221 141.083ZM91.71 140.908C91.5572 140.818 91.3445 140.934 91.3369 141.112C91.3539 141.207 91.4409 141.368 91.5234 141.392C91.605 141.416 91.9068 141.286 91.9141 141.283C91.8267 141.122 91.7925 140.932 91.71 140.908ZM137.209 97.4751C137.193 97.6197 137.253 97.7584 137.359 97.8257L138.501 100.496C138.375 100.508 138.256 100.538 138.149 100.589C137.521 100.899 137.191 101.566 137.298 102.272C137.378 102.61 137.539 102.973 137.66 103.324C138.052 103.439 138.331 103.523 138.61 103.605C138.899 103.69 139.13 103.668 139.385 103.563C139.501 103.509 139.615 103.439 139.725 103.357L142.396 109.603H139.168C139.289 108.81 138.833 108.033 138.093 107.815C137.132 107.576 136.224 108.073 135.993 108.86C135.935 109.102 135.938 109.357 135.985 109.603H126.508C126.448 109.24 126.214 108.942 125.865 108.839C125.341 108.64 124.659 108.978 124.501 109.516C124.49 109.545 124.483 109.574 124.475 109.603H48.6426L63.0254 75.9751H80.6279C80.6221 75.9838 80.617 75.993 80.6143 76.0025C80.566 76.1679 80.6535 76.3287 80.8184 76.3775C80.9007 76.4018 81.1139 76.2853 81.127 76.2437C81.144 76.1857 81.1159 76.0759 81.083 75.9751H92.6104C92.6431 75.9938 92.6788 76.0101 92.7158 76.021C92.746 76.0155 92.7831 75.9968 92.8213 75.9751H102.842C102.883 76.4 103.277 76.7994 103.746 76.938C104.076 77.035 104.622 76.7011 104.813 76.353C104.884 76.2272 104.926 76.1016 104.944 75.9751H110.188C110.258 76.0151 110.332 76.0475 110.411 76.0708C110.748 76.1935 111.096 76.1495 111.385 75.9751H116.006C115.996 75.9995 115.985 76.024 115.978 76.0503C115.91 76.435 116.031 76.7859 116.361 76.8833C116.732 76.9926 117.118 76.7468 117.228 76.3745C117.269 76.2343 117.259 76.0965 117.208 75.9751H128.014L137.209 97.4751ZM114.573 106.675C113.983 106.546 113.486 106.715 113.204 107.216C112.857 107.788 112.847 108.281 113.286 108.77C113.696 109.206 114.299 109.293 114.845 108.959C115.058 108.843 115.469 108.514 115.469 108.514L115.48 108.473C115.471 108.201 115.461 107.928 115.398 107.684C115.314 107.209 115.068 106.821 114.573 106.675ZM74.5156 108.571C74.4866 108.517 74.2739 108.634 74.249 108.716C74.2248 108.799 74.2994 109.001 74.3818 109.026C74.4516 109.091 74.8244 109.025 74.8311 109.024L74.79 109.011C74.6736 108.797 74.6272 108.649 74.5156 108.571ZM84.4873 107.286C84.4098 107.263 84.3688 107.251 84.3643 107.25C84.0803 107.301 83.8596 107.595 83.9395 107.933C83.9613 108.164 84.1015 108.296 84.3076 108.357C84.5551 108.43 84.7767 108.136 84.7793 107.822C84.7745 107.685 84.7282 107.536 84.6699 107.429C84.6129 107.324 84.4655 107.236 84.459 107.232L84.4873 107.286ZM134.299 106.38C134.015 106.431 133.884 106.573 133.894 106.845C133.91 106.94 133.981 107.006 134.051 107.072C134.121 107.138 134.27 107.091 134.323 107.062C134.507 106.892 134.532 106.809 134.299 106.38ZM97.7588 105.76C97.5526 105.699 97.2978 105.804 97.249 105.969C97.164 106.259 97.2563 106.556 97.5039 106.629C97.6656 106.677 97.9249 106.539 97.9355 106.533L97.9482 106.491C98.1398 106.143 98.0474 105.846 97.7588 105.76ZM73.3125 105.336C73.0771 105.222 72.7687 105.355 72.6836 105.645C72.5744 106.017 72.7366 106.38 73.0664 106.478L73.0254 106.466C73.3019 106.593 73.6222 106.418 73.6953 106.169C73.8045 105.797 73.6423 105.434 73.3125 105.336ZM129.17 105.676C129.125 105.828 129.081 105.977 129.048 106.09C129.065 106.185 129.153 106.346 129.276 106.382C129.318 106.395 129.507 106.36 129.52 106.319C129.597 106.207 129.645 106.042 129.575 105.976C129.517 105.869 129.211 105.688 129.211 105.688L129.196 105.662L129.223 105.647C129.206 105.642 129.191 105.635 129.176 105.629L129.17 105.676ZM133.632 103.304C132.848 103.073 132.075 103.565 131.82 104.434C131.638 105.055 132.1 105.776 132.76 105.971C133.461 106.178 134.34 105.628 134.477 104.859C134.649 103.965 134.416 103.536 133.632 103.304ZM131.274 104.768C130.956 104.629 130.648 104.763 130.551 105.094C130.412 105.413 130.546 105.722 130.876 105.82C131.206 105.917 131.515 105.783 131.6 105.494C131.738 105.175 131.604 104.866 131.274 104.768ZM129.08 105.065C128.998 105.041 128.92 105.152 128.896 105.235C128.866 105.475 128.994 105.568 129.176 105.629C129.195 105.471 129.266 105.333 129.262 105.209C129.286 105.126 129.122 105.077 129.08 105.065ZM106.033 104.604C105.956 104.716 105.862 104.733 105.884 104.963C105.978 104.946 106.031 104.917 106.125 104.9C106.108 104.805 106.033 104.604 106.033 104.604ZM103.014 103.893C102.931 103.869 102.824 103.927 102.718 103.985C102.776 104.092 102.769 104.27 102.852 104.294C102.922 104.36 103.271 104.239 103.271 104.239L103.23 104.226C103.143 104.065 103.096 103.917 103.014 103.893ZM111.173 104.052C111.231 104.159 111.396 104.208 111.396 104.208C111.379 104.113 111.349 104.06 111.173 104.052ZM88.1611 103.782C88.1372 103.864 88.3301 103.966 88.3301 103.966C88.3422 103.925 88.3663 103.842 88.1611 103.782ZM125.077 101.589C124.635 101.414 123.953 101.752 123.808 102.249C123.638 102.828 123.946 103.459 124.482 103.618C125.011 103.774 125.525 103.532 125.702 102.969C125.91 102.233 125.568 101.734 125.077 101.589ZM112.269 101.542C111.98 101.456 111.469 101.665 111.372 101.997C111.239 102.452 111.489 102.976 111.86 103.085C112.273 103.207 112.753 102.944 112.851 102.613C112.984 102.157 112.722 101.675 112.31 101.553L112.269 101.542ZM99.2305 99.6714C98.9539 99.5449 98.6818 99.5545 98.3857 99.647C97.4026 99.9416 96.9054 100.875 97.2402 101.874C97.4126 102.509 97.8881 102.874 98.5312 102.974C99.1332 103.062 99.5437 102.733 99.8545 102.285C99.9975 102.102 100.088 101.949 100.148 101.742C100.432 100.926 100.002 99.9442 99.2305 99.6714ZM125.702 102.969C125.701 102.975 125.7 102.981 125.698 102.987L125.711 102.946C125.709 102.954 125.705 102.961 125.702 102.969ZM116.164 102.782C116.181 102.875 116.331 102.964 116.333 102.965C116.345 102.924 116.369 102.842 116.164 102.782ZM135.725 102.437L135.766 102.449C135.766 102.449 135.764 102.442 135.762 102.43C135.749 102.432 135.737 102.435 135.725 102.437ZM135.702 102.207C135.726 102.25 135.752 102.381 135.762 102.43C135.843 102.416 135.918 102.404 135.954 102.415C135.937 102.32 135.907 102.267 135.702 102.207ZM103.935 101.06C103.745 100.96 103.451 101.216 103.438 101.228L103.425 101.27C103.364 101.477 103.439 101.679 103.646 101.74C103.852 101.801 103.988 101.796 104.09 101.601C104.192 101.406 104.129 101.162 103.935 101.06ZM79.0889 100.923C79.0485 100.912 78.8865 101.032 78.877 101.04C78.8939 101.134 78.9971 101.389 78.9971 101.389C79.1554 101.303 79.2736 101.204 79.2754 101.203C79.2174 101.096 79.1589 100.989 79.0889 100.923ZM131.544 100.484C131.391 100.394 131.095 100.487 131.034 100.694C130.92 100.93 131.013 101.227 131.207 101.33C131.401 101.432 131.751 101.31 131.812 101.103L131.782 101.049C131.884 100.855 131.779 100.598 131.544 100.484ZM136.746 98.646C136.127 98.4635 135.404 98.7898 135.222 99.4107C135.064 99.9489 135.46 100.74 135.955 100.886C136.574 101.069 137.268 100.689 137.45 100.068C137.644 99.4056 137.365 98.8287 136.746 98.646ZM82.5537 99.2027C82.4179 99.2076 82.2579 99.2947 82.2334 99.3775C82.1436 99.5309 82.2605 99.7453 82.4668 99.8062C82.6028 99.8011 82.8164 99.6841 82.8164 99.6841C82.8888 99.4359 82.7308 99.21 82.5537 99.2027ZM113.374 94.9341C113.156 95.1223 113.019 95.2895 112.878 95.3335C112.689 95.3676 112.47 95.3483 112.28 95.3823C111.186 95.5992 110.528 96.6191 110.744 97.7173C110.938 98.5843 111.543 99.1231 112.429 99.1597C112.96 99.1815 113.358 98.8939 113.698 98.4995C114.324 97.7398 114.443 96.8751 113.858 96.1177C113.627 95.8161 113.466 95.4215 113.374 94.9341ZM76.085 96.7984C75.9371 96.8446 75.724 96.9608 75.6992 97.0435C75.6603 97.4818 75.5221 97.8012 75.2891 98.1372C75.1458 98.3199 75.3498 98.6955 75.6387 98.7808C75.8036 98.8293 76.0456 98.7656 76.1064 98.5591C76.1575 98.0793 76.5612 97.9276 76.8525 97.6987C76.9184 97.6277 77.1143 97.4165 77.1143 97.4165L77.085 97.3628C76.658 96.8321 76.4636 96.7302 76.085 96.7984ZM96.4512 98.4468C96.4283 98.5268 96.6099 98.6249 96.6201 98.6304C96.6322 98.5891 96.6562 98.5073 96.4512 98.4468ZM109.207 97.7583C109.047 97.8458 108.9 97.8925 108.875 97.9751C108.797 98.0871 108.902 98.3429 109.025 98.3794C109.149 98.416 109.375 98.258 109.37 98.1216C109.353 98.0266 109.207 97.7583 109.207 97.7583ZM126.227 95.9898C125.714 95.7487 124.991 96.0758 124.727 96.6724C124.462 97.269 124.775 98.0362 125.382 98.2603C125.947 98.4719 126.535 98.1501 126.812 97.5122C127.064 96.957 126.739 96.2309 126.227 95.9898ZM99.4316 97.3023C99.2788 97.2125 99.0657 97.329 99.0049 97.5357C98.9442 97.7427 99.078 98.0527 99.3086 98.0308C99.4859 98.0377 99.8428 97.7378 99.8428 97.7378L99.7891 97.7671C99.6726 97.5528 99.5967 97.351 99.4316 97.3023ZM87.7832 95.438C87.3827 95.2748 86.9554 95.5084 86.834 95.9224C86.7126 96.3363 86.9214 96.8474 87.334 96.9693C87.7053 97.0789 88.067 96.9162 88.1885 96.5025C88.3754 96.0178 88.2076 95.5178 87.7949 95.396L87.7832 95.438ZM102.331 96.1333C102.178 96.0432 101.964 96.1605 101.928 96.2847C101.945 96.3797 101.979 96.5699 102.062 96.5943C102.186 96.6303 102.576 96.521 102.576 96.521C102.448 96.3482 102.401 96.1992 102.331 96.1333ZM99.1016 95.6753C99.0605 95.6632 98.8837 95.6556 98.8594 95.7378C98.741 95.8372 98.869 96.01 98.9922 96.0464C99.0744 96.0706 99.2871 95.9536 99.2871 95.9536L99.2578 95.9009C99.2 95.7945 99.1833 95.6998 99.1016 95.6753ZM113.374 94.9341C113.385 94.9246 113.396 94.9144 113.407 94.9048L113.366 94.8921C113.369 94.9061 113.371 94.9203 113.374 94.9341ZM74.6943 94.813C75.1772 95.0005 75.5343 94.7012 75.8086 94.3775C76.0586 94.1364 76.1675 93.7633 76.0996 93.3833C76.0438 92.962 75.8935 92.5581 75.4639 92.3413L75.4346 92.2876L74.6943 94.813ZM122.139 91.2749C121.148 90.9826 120.158 91.4547 119.915 92.2827C119.738 93.0401 120.333 94.0702 121.075 94.2896C121.83 94.4674 122.882 93.7876 123.071 92.9888C123.212 92.3556 122.716 91.4454 122.139 91.2749ZM96.9277 91.1646C96.486 90.9892 96.0953 91.0988 95.9326 91.5005C95.7821 91.8609 95.879 92.2944 96.3086 92.5112C96.6556 92.7037 96.867 92.9012 97.083 93.2349C97.3573 93.6755 97.8767 93.7392 98.333 93.5591C98.7772 93.4203 99.0173 92.9056 98.9736 92.4429C98.8596 91.9147 98.6023 91.5688 98.083 91.5054C97.8278 91.4743 97.4016 91.4364 97.3867 91.4351L97.3574 91.3814C97.1343 91.2256 97.0103 91.1889 96.9277 91.1646ZM113.077 93.2779C113.094 93.3724 113.259 93.4214 113.259 93.4214C113.271 93.3802 113.241 93.3264 113.077 93.2779ZM105.651 90.771C105.074 90.6007 104.54 90.8931 104.382 91.4312C104.171 91.9985 104.479 92.6293 105.016 92.7876C105.511 92.9337 106.045 92.6415 106.215 92.062L106.256 92.0737C106.438 91.4528 106.188 90.9294 105.651 90.771ZM90.2715 92.3032C90.2297 92.2916 90.0168 92.4081 89.9922 92.4907C89.997 92.6271 90.0845 92.7885 90.167 92.813C90.2495 92.8374 90.5996 92.7154 90.5996 92.7154C90.4419 92.4888 90.3953 92.3398 90.2715 92.3032ZM101.61 92.3218C101.528 92.2974 101.219 92.4312 101.219 92.4312C101.359 92.5625 101.406 92.7112 101.488 92.7359C101.571 92.7602 101.69 92.6605 101.797 92.6021C101.739 92.495 101.693 92.3464 101.61 92.3218ZM130.819 91.1831C130.501 91.0443 130.045 91.2246 129.936 91.5972C129.777 91.9894 129.917 92.383 130.27 92.5034C130.638 92.6037 131.083 92.4256 131.179 92.0991C131.329 91.7387 131.179 91.3342 130.819 91.1831ZM130.295 92.5122C130.286 92.5097 130.278 92.5063 130.27 92.5034C130.264 92.502 130.259 92.502 130.254 92.5005L130.295 92.5122ZM114.817 92.0806L114.858 92.0923C114.858 92.0907 114.853 92.08 114.846 92.063C114.836 92.0683 114.827 92.0753 114.817 92.0806ZM114.926 91.7095C114.884 91.6981 114.767 91.7965 114.714 91.8257C114.767 91.8756 114.822 92.0045 114.846 92.063C114.942 92.0103 115.031 91.9598 115.042 91.9224C115.066 91.84 115.008 91.7337 114.926 91.7095ZM127.592 88.4302C127.3 88.6591 127.062 88.8588 126.836 89.0171C126.117 89.4798 125.875 90.3081 126.229 91.0874C126.375 91.3552 126.467 91.652 126.797 91.7495C127.457 91.9444 128.089 92.0859 128.749 91.5161C129.635 90.788 129.516 89.3592 128.504 88.8355C128.198 88.6553 127.922 88.5284 127.562 88.3775L127.592 88.4302ZM124.208 88.9614C123.978 88.9833 123.706 88.9928 123.533 89.1216C123.028 89.4673 122.734 90.0105 122.688 90.6265C122.646 91.379 123.251 91.9175 123.885 91.7446C124.411 91.6301 124.764 91.1941 125.033 90.7339C125.266 90.398 125.334 90.013 125.048 89.6138C124.948 89.4944 124.868 89.1558 124.868 89.1558L124.88 89.1148C124.662 89.0952 124.426 88.981 124.208 88.9614ZM133.806 90.1753C133.723 90.1509 133.546 90.1438 133.48 90.2144C133.333 90.2606 133.284 90.4258 133.235 90.5913C133.175 90.7982 133.344 90.9839 133.509 91.0327C133.686 91.0401 133.805 90.9395 133.854 90.7739C133.866 90.7321 133.915 90.5669 133.915 90.5669L133.873 90.5552C133.885 90.5138 133.91 90.4306 133.922 90.3892C133.893 90.3354 133.847 90.1879 133.806 90.1753ZM82.6797 87.7681C82.3682 88.0757 82.08 88.3027 81.7178 88.6362C81.7238 88.7576 81.7381 88.8459 81.7539 88.9341C81.7879 89.124 81.8348 89.2729 81.8809 89.4214C82.2279 90.3786 82.757 90.7152 83.7158 90.5034C84.0531 90.4231 84.3368 90.3721 84.6426 90.5523C84.7251 90.5766 84.9679 90.513 84.9922 90.4302C85.0699 90.3182 85.0238 90.1697 84.9316 89.8726C84.6259 89.6924 84.4924 89.3832 84.5068 89.0279C84.5093 88.7137 84.2986 88.5156 84.0996 88.2769C83.6895 87.841 83.2232 87.7487 82.6797 87.7681ZM106.261 89.9165C106.142 90.0158 106.048 90.0324 106.023 90.1148C105.999 90.1972 106.111 90.2751 106.128 90.3696C106.193 90.2994 106.328 90.2938 106.353 90.2114C106.376 90.1309 106.267 89.9273 106.261 89.9165ZM121.238 89.2993C121.156 89.2753 120.955 89.3505 120.931 89.4331C120.775 89.6572 120.797 89.8886 121.096 90.2466L121.083 90.2886C121.221 89.9696 121.365 89.7866 121.426 89.5796C121.45 89.4968 121.321 89.3237 121.238 89.2993ZM91.4238 89.8999C91.3823 89.8884 91.2243 89.975 91.2119 90.0161C91.1998 90.0573 91.2451 90.2056 91.3271 90.23C91.3675 90.2419 91.574 90.1294 91.5811 90.1255L91.6221 90.1372C91.5232 90.0185 91.5059 89.9242 91.4238 89.8999ZM77.8086 90.1538C77.7796 90.1005 77.7621 90.0055 77.5615 90.0806C77.5784 90.1751 77.8086 90.1538 77.8086 90.1538ZM107.164 88.9175C107.033 89.0798 106.927 89.1737 106.904 89.2515C106.892 89.293 106.939 89.441 107.021 89.4654C107.133 89.5433 107.252 89.444 107.288 89.3198C107.275 89.2455 107.197 89.0143 107.164 88.9175ZM107.164 88.9175C107.173 88.907 107.183 88.8973 107.191 88.8862L107.149 88.8736C107.149 88.8736 107.155 88.8907 107.164 88.9175ZM85.2686 88.2622C85.0746 88.1602 84.9148 88.2481 84.8662 88.4136C84.8419 88.4963 84.9166 88.6985 84.999 88.7232C85.1228 88.7597 85.4727 88.6372 85.4727 88.6372L85.5264 88.6089C85.3977 88.436 85.3511 88.2866 85.2686 88.2622ZM81.7031 88.6499C81.708 88.6455 81.713 88.6407 81.7178 88.6362C81.7173 88.6271 81.7162 88.6175 81.7158 88.6079L81.7031 88.6499ZM119.669 87.6216C119.421 87.5485 119.195 87.7063 119.122 87.9546C119.037 88.2444 119.196 88.4709 119.484 88.5562C119.732 88.629 119.957 88.4713 120.03 88.2232C120.115 87.9335 119.957 87.707 119.669 87.6216ZM94.2275 86.0591C94.1351 86.0726 94.0118 86.0791 93.8887 86.0835C93.3621 86.1981 92.9445 86.7051 92.9639 87.2505C92.9833 87.796 93.3646 88.1779 93.9326 88.0757C94.0806 88.0295 94.2697 87.9957 94.3887 87.896C94.7213 87.6793 94.8716 87.3189 94.8037 86.939C94.7387 86.5755 94.6242 86.2412 94.2275 86.0591ZM104.368 87.1978C104.121 87.1248 103.842 87.3123 103.863 87.5435C103.897 87.7334 104.097 87.9722 104.097 87.9722C104.397 88.0159 104.569 87.8871 104.63 87.6802C104.649 87.461 104.574 87.2587 104.368 87.1978ZM122.665 87.3355C122.595 87.27 122.43 87.222 122.418 87.2632C122.3 87.3626 122.305 87.4982 122.416 87.5757C122.445 87.629 122.675 87.6079 122.675 87.6079L122.716 87.6196C122.699 87.5252 122.706 87.348 122.665 87.3355ZM111.804 86.9185C111.762 86.9063 111.573 86.9412 111.549 87.0239C111.43 87.1238 111.493 87.3668 111.658 87.4155C111.74 87.4393 112.079 87.3228 112.09 87.3189L112.131 87.3306C111.961 87.1456 111.915 86.9964 111.804 86.9185ZM120.901 84.7915C120.678 84.6357 120.418 84.6035 120.151 84.7495C119.991 84.8372 119.741 85.0786 119.741 85.0786L119.771 85.1323C119.465 84.9521 119.176 84.867 118.887 84.7818C118.421 84.6892 117.952 84.9108 117.831 85.3247C117.656 85.7679 117.758 86.3376 118.081 86.6128C118.545 87.0194 119.047 86.9875 119.493 86.5347C119.624 86.3935 119.715 86.2404 119.846 86.0991C120.105 86.1308 120.324 86.1503 120.555 86.1284C120.839 86.0773 121.023 85.9065 121.108 85.6167C121.247 85.2978 121.125 84.9474 120.901 84.7915ZM94.2275 86.0591C94.2371 86.0577 94.247 86.0587 94.2559 86.0571L94.1729 86.0327C94.192 86.0403 94.2096 86.0509 94.2275 86.0591ZM93.0908 83.1489C92.4015 82.9005 91.7312 83.1977 91.5127 83.9429C91.2043 84.8415 91.5756 85.7158 92.3184 85.9351C93.1024 86.1665 93.7962 85.7865 94.0391 84.9585C94.3595 84.0185 93.8746 83.3809 93.1318 83.1616L93.0908 83.1489ZM85.3613 85.5005C85.2552 85.5586 85.1481 85.6165 85.1357 85.6577C85.1237 85.6989 85.1698 85.8473 85.252 85.8716C85.3631 85.9491 85.5223 85.8618 85.5176 85.7261C85.501 85.6333 85.3775 85.4655 85.373 85.4595L85.3613 85.5005ZM105.25 84.8042C105.073 84.7969 104.913 84.8847 104.864 85.0503C104.804 85.2573 104.879 85.4591 105.085 85.52C105.25 85.5687 105.464 85.4524 105.524 85.2456C105.585 85.0386 105.415 84.853 105.25 84.8042ZM125.182 83.8052C124.922 83.7735 124.696 83.9322 124.636 84.1392C124.592 84.4412 124.738 84.7087 124.985 84.7818L124.997 84.7407C125.245 84.8138 125.536 84.5852 125.567 84.3247C125.587 84.1055 125.429 83.8783 125.182 83.8052ZM111.117 84.062C110.911 84.0012 110.656 84.1057 110.607 84.271C110.559 84.4366 110.622 84.6808 110.828 84.7417C111.034 84.8025 111.297 84.52 111.297 84.52L111.338 84.5318C111.386 84.3662 111.323 84.123 111.117 84.062ZM98.9141 83.4741C98.6252 83.389 98.3047 83.5643 98.2197 83.854C98.1229 84.185 98.2855 84.5475 98.6152 84.645C98.9041 84.7303 99.1718 84.5843 99.2568 84.2945C99.4072 83.9341 99.2441 83.5716 98.9141 83.4741ZM78.7334 83.6343C78.6921 83.6226 78.5862 83.6809 78.4922 83.6978C78.5089 83.7922 78.4729 83.9156 78.5547 83.94C78.6234 84.0041 78.8571 83.9443 78.8662 83.9419L78.8789 83.9009C78.8209 83.7942 78.8155 83.6585 78.7334 83.6343ZM84.5293 83.1411C84.323 83.0802 84.1213 83.1558 84.0605 83.3628C83.988 83.6111 84.1629 83.932 84.4346 83.9224C84.6118 83.9297 84.8496 83.73 84.8496 83.73C84.8932 83.4281 84.7768 83.2142 84.5293 83.1411ZM110.076 82.7202C109.829 82.6471 109.537 82.8761 109.464 83.1245C109.379 83.4143 109.554 83.7356 109.843 83.8208L109.872 83.8745C110.12 83.9473 110.44 83.7722 110.513 83.5239C110.61 83.1929 110.365 82.8058 110.076 82.7202ZM126.747 83.0532C126.682 83.1232 126.576 83.181 126.563 83.2222C126.539 83.3045 126.597 83.4116 126.679 83.4361C126.761 83.4603 126.945 83.2905 126.945 83.2905C126.846 83.1719 126.817 83.1186 126.747 83.0532ZM115.093 82.5816C114.887 82.521 114.619 82.6671 114.653 82.857C114.658 82.9915 114.841 83.2656 114.846 83.273C115.134 83.3581 115.318 83.1883 115.338 82.9693C115.345 82.7915 115.258 82.6303 115.093 82.5816ZM113.372 82.7935C113.348 82.8745 113.535 82.9748 113.541 82.978C113.553 82.9368 113.577 82.8541 113.372 82.7935ZM129.175 81.6558C128.915 81.6242 128.677 81.8235 128.604 82.0718C128.52 82.3615 128.718 82.6002 128.966 82.6734C129.225 82.705 129.463 82.5056 129.536 82.2573C129.621 81.9675 129.422 81.7289 129.175 81.6558ZM107.348 82.229C107.278 82.1638 107.208 82.0987 107.008 82.1734C107.037 82.2267 107.095 82.3337 107.177 82.3579C107.218 82.3696 107.348 82.229 107.348 82.229ZM100.371 81.565C100.264 81.6233 100.104 81.7105 100.067 81.8345C99.9655 82.0291 100.094 82.2026 100.259 82.2515C100.412 82.3416 100.614 82.2657 100.662 82.1001C100.764 81.9055 100.648 81.6913 100.359 81.606L100.371 81.565ZM81.6348 81.3872C81.5527 81.363 81.4754 81.4736 81.3691 81.5318C81.4392 81.5972 81.4852 81.7458 81.5674 81.77C81.6005 81.7792 81.7735 81.6882 81.8438 81.6509C81.7582 81.5373 81.7111 81.4098 81.6348 81.3872ZM81.8438 81.6509C81.8502 81.6594 81.8554 81.669 81.8623 81.6773L81.874 81.6362C81.874 81.6362 81.862 81.6412 81.8438 81.6509ZM109.707 77.7075C109.535 77.8366 109.387 77.8835 109.28 77.9419C108.664 78.2097 108.411 78.7652 108.365 79.3814C108.3 80.2166 109.001 81.1879 110.042 81.0005C110.746 80.8934 111.283 80.2872 111.324 79.5347C111.361 78.6458 111.139 78.1758 110.45 77.9273C110.203 77.8542 109.996 77.7933 109.749 77.7202L109.707 77.7075ZM120.688 78.7896C120.57 78.8889 120.463 78.9476 120.451 78.9888C120.439 79.0301 120.485 79.1774 120.567 79.2017C120.608 79.2137 120.714 79.1562 120.809 79.1392C120.804 79.0034 120.7 78.7486 120.7 78.7486L120.688 78.7896ZM118.123 78.2134C117.917 78.1525 117.65 78.2981 117.577 78.5464C117.504 78.7948 117.856 79.1236 117.856 79.1236C118.063 79.1841 118.341 78.9973 118.402 78.7905C118.463 78.5836 118.329 78.2743 118.123 78.2134ZM98.9609 78.2691C98.8837 78.3804 98.8179 78.4505 98.8057 78.4917C98.8346 78.545 98.9046 78.6109 98.9746 78.6763C99.0399 78.606 99.1471 78.5476 99.1592 78.5064C99.1828 78.4238 99.0137 78.2398 99.0137 78.2398L98.9609 78.2691ZM106.942 77.6568C106.724 77.6372 106.523 77.7124 106.462 77.9195C106.389 78.1678 106.535 78.4357 106.741 78.4966C106.935 78.5984 107.214 78.4113 107.274 78.2046L107.287 78.1626C107.348 77.9557 107.19 77.7299 106.942 77.6568ZM127.624 76.6987C127.253 76.5893 126.973 76.7769 126.84 77.232L126.811 77.1792C126.677 77.6344 126.923 78.0218 127.294 78.1314C127.677 78.1996 128.034 77.8998 128.155 77.4859C128.265 77.1132 128.037 76.8206 127.624 76.6987ZM124.782 76.7593C124.547 76.6448 124.268 76.8328 124.183 77.1226C124.11 77.371 124.243 77.6803 124.49 77.7534C124.75 77.7851 125.03 77.5975 125.103 77.3491L125.131 77.4029C125.204 77.1546 125.03 76.8326 124.782 76.7593ZM83.042 76.1343C82.8478 76.032 82.5514 76.1242 82.4785 76.3726C82.3402 76.6915 82.5151 77.0127 82.8037 77.0982C83.0221 77.1177 83.2777 77.0134 83.3506 76.7652L83.3379 76.8062C83.4641 76.5286 83.3308 76.2196 83.042 76.1343ZM89.6201 13.7954C91.6096 9.14405 97.7244 8.66139 100.571 12.3462C100.504 12.4114 100.453 12.4881 100.428 12.5737C100.343 12.8636 100.534 13.2795 100.823 13.3648C100.937 13.3983 101.072 13.3802 101.199 13.3306C101.277 13.4806 101.351 13.6355 101.419 13.7954L105.569 23.4986C105.566 23.4942 105.564 23.4917 105.564 23.4917L105.552 23.5337C105.446 23.5917 105.351 23.6086 105.327 23.6909C105.315 23.7324 105.361 23.8795 105.443 23.9038C105.54 23.971 105.672 23.9147 105.702 23.8101L115.052 45.6685H75.9873L89.6201 13.7954ZM95.0322 44.27C94.7023 44.1727 94.3405 44.3356 94.2432 44.6665C94.1339 45.0391 94.3261 45.4558 94.6562 45.5532C94.9863 45.6505 95.3189 45.4342 95.416 45.103L95.4277 45.062C95.5249 44.7308 95.3623 44.3675 95.0322 44.27ZM89.2695 45.2681C89.7307 45.2243 89.8501 45.1246 89.9473 44.7935C89.991 44.4915 89.9808 44.2185 89.6094 44.1089L89.2695 45.2681ZM104.37 44.6851L104.399 44.7388C104.399 44.7388 104.388 44.7171 104.374 44.6831C104.373 44.6836 104.371 44.6846 104.37 44.6851ZM104.544 44.2437C104.438 44.3018 104.344 44.3193 104.237 44.3775C104.278 44.4527 104.34 44.602 104.374 44.6831C104.519 44.6365 104.636 44.5396 104.636 44.5396C104.66 44.4572 104.602 44.3503 104.544 44.2437ZM105.611 43.2095C105.417 43.1072 105.203 43.2242 105.143 43.4312C105.094 43.5968 105.211 43.8107 105.417 43.8716C105.582 43.9203 105.742 43.8331 105.791 43.6675C105.838 43.5058 105.582 43.2115 105.57 43.1978L105.611 43.2095ZM101.989 42.4107C101.948 42.3987 101.776 42.5271 101.752 42.6099C101.769 42.7049 101.856 42.8658 101.938 42.8902C102.02 42.914 102.358 42.7967 102.37 42.7925L102.329 42.7808C102.2 42.6078 102.113 42.4472 101.989 42.4107ZM104.969 40.0503C104.568 39.8871 104.004 40.1259 103.858 40.6226C103.684 41.0658 103.922 41.6312 104.376 41.7652C104.788 41.8869 105.245 41.7069 105.391 41.2105C105.578 40.726 105.422 40.1845 104.969 40.0503ZM93.7266 39.7017C93.4791 39.6288 93.2121 39.7741 93.1514 39.981C93.0542 40.3122 93.205 40.7165 93.5352 40.814L93.5469 40.773C93.7409 40.8752 94.008 40.7291 94.0811 40.481C94.2195 40.1619 94.0567 39.7991 93.7266 39.7017ZM95.3066 40.1226C95.2772 40.0693 95.0236 40.1736 94.999 40.2564C94.897 40.4512 94.9844 40.6119 95.1494 40.6607C95.2316 40.6846 95.5752 40.565 95.5811 40.563C95.4647 40.3489 95.4182 40.2005 95.3066 40.1226ZM100.387 37.9331C100.293 37.9502 100.228 38.0204 100.187 38.0083C100.203 38.1029 100.245 38.1157 100.45 38.1763C100.433 38.0817 100.387 37.9331 100.387 37.9331ZM98.6797 34.2808C98.5973 34.2564 98.5313 34.3265 98.4658 34.397C98.5775 34.4749 98.6236 34.6236 98.7061 34.648C98.7445 34.6593 98.8398 34.611 99.0723 34.5962C98.8514 34.4093 98.7573 34.3039 98.6797 34.2808ZM99.0723 34.5962C99.0861 34.6079 99.0994 34.621 99.1143 34.6333L99.126 34.5923C99.1073 34.593 99.0894 34.5951 99.0723 34.5962ZM94.5996 27.0933L94.4424 27.6314C94.6363 27.7335 94.7891 27.8234 94.9951 27.8843C95.1893 27.9866 95.4564 27.8407 95.5293 27.5923C95.6385 27.2197 95.398 26.9693 94.9902 26.9839C94.8421 27.0301 94.5996 27.0933 94.5996 27.0933ZM96.2998 21.2964C96.4065 21.238 96.5132 21.1798 96.5908 21.0679C96.7875 20.856 96.7948 20.6783 96.5303 20.5103L96.2998 21.2964ZM98.458 18.8296C98.2809 18.8223 98.2032 18.9345 98.208 19.0708C98.225 19.1658 98.4531 19.4585 98.4531 19.4585C98.5964 19.2759 98.674 19.1634 98.6982 19.0806C98.6933 18.9444 98.6228 18.8783 98.458 18.8296ZM100.209 14.0835C100.114 14.1006 99.954 14.1882 99.9297 14.271C99.9054 14.3538 100.034 14.5268 100.116 14.5513C100.199 14.5757 100.479 14.3882 100.479 14.3882L100.52 14.3999C100.391 14.2272 100.291 14.1081 100.209 14.0835Z" fill="var(--fill-0, #0E8179)"/>
<path id="Subtract_2" d="M94.6924 9.9551C97.3443 9.62092 100.181 10.901 101.419 13.7959L164.416 161.084H26.623L28.4854 156.73H94.6924V9.9551Z" fill="var(--fill-0, #0B6B64)" fill-opacity="0.2"/>
</g>
<defs>
<linearGradient id="paint0_linear_0_5" x1="63.5151" y1="37.5684" x2="165.182" y2="178.031" gradientUnits="userSpaceOnUse">
<stop stop-color="#B3B3B3" stop-opacity="0.75"/>
<stop offset="0.653846" stop-color="white"/>
<stop offset="1" stop-color="#666666" stop-opacity="0.5"/>
</linearGradient>
</defs>
</svg>
