<svg width="171" height="172" viewBox="0 0 171 172" fill="none" xmlns="http://www.w3.org/2000/svg">
<g filter="url(#filter0_d_7894_345607)">
<path d="M14.8418 18.5529C14.8418 14.4544 18.1643 11.1318 22.2628 11.1318H148.421C152.519 11.1318 155.842 14.4544 155.842 18.5529V145.869C155.842 149.967 152.519 153.29 148.421 153.29H22.2628C18.1643 153.29 14.8418 149.967 14.8418 145.869V18.5529Z" fill="white" shape-rendering="crispEdges"/>
<path d="M22.2627 11.5957H148.421C152.263 11.5958 155.378 14.7105 155.378 18.5527V145.869C155.378 149.711 152.263 152.826 148.421 152.826H22.2627C18.4205 152.826 15.3059 149.711 15.3057 145.869V18.5527C15.3058 14.7105 18.4204 11.5958 22.2627 11.5957Z" stroke="#FBFCFC" stroke-width="0.927631" shape-rendering="crispEdges"/>
<path d="M39.5616 33.3648H38.355V23.5486H39.5616V33.3648ZM41.0781 28.3045H39.2899V27.2881H41.0781V28.3045ZM33.4143 26.8098H35.7297V24.353H36.9309V31.0711H32.2076V24.353H33.4143V26.8098ZM35.7297 30.0819V27.7556H33.4143V30.0819H35.7297ZM50.4704 32.2343H41.4912V31.2396H50.4704V32.2343ZM46.5515 31.6636H45.3611V29.2992H46.5515V31.6636ZM49.3996 27.3751H43.7577V29.1579H42.5511V26.4239H48.2093V25.1955H42.5348V24.2171H49.3996V27.3751ZM49.6333 29.6307H42.5511V28.6469H49.6333V29.6307ZM58.8027 33.3594H57.5961V23.5486H58.8027V33.3594ZM60.2594 28.3915H58.4929V27.3914H60.2594V28.3915ZM56.2101 24.5759C56.2101 25.576 56.0597 26.5072 55.7589 27.3696C55.4618 28.2284 54.9817 29.0184 54.3186 29.7395C53.6555 30.4569 52.7967 31.0784 51.7422 31.6038L51.0628 30.6689C51.9506 30.2196 52.6862 29.7068 53.2696 29.1307C53.8566 28.5545 54.295 27.9077 54.5849 27.1903C54.8748 26.4692 55.0197 25.6684 55.0197 24.7879V24.5759H56.2101ZM55.6339 25.5705H51.5737V24.5759H55.6339V25.5705ZM68.9342 33.3648H67.7113V23.5486H68.9342V33.3648ZM66.0046 24.5922C66.0046 25.6176 65.856 26.558 65.5589 27.4131C65.2654 28.2647 64.7816 29.0492 64.1076 29.7666C63.4336 30.4805 62.5404 31.1019 61.428 31.6309L60.7866 30.6635C61.7324 30.2141 62.5006 29.7032 63.0912 29.1307C63.6819 28.5582 64.1149 27.915 64.3903 27.2011C64.6657 26.4873 64.8034 25.6865 64.8034 24.7987V24.5922H66.0046ZM65.3469 25.5488H61.2867V24.5922H65.3469V25.5488Z" fill="#9CA3A3"/>
<g filter="url(#filter1_ii_7894_345607)">
<path d="M16.6973 47.5402C16.6973 43.4417 20.0198 40.1191 24.1183 40.1191H146.566C150.664 40.1191 153.987 43.4417 153.987 47.5402V69.8033C153.987 73.9019 150.664 77.2244 146.566 77.2244H24.1183C20.0198 77.2244 16.6973 73.9019 16.6973 69.8033V47.5402Z" fill="#FBFCFC"/>
<path d="M41.685 64.2499H40.5309V58.4286H39.0724V63.6665H37.9437V53.1147H39.0724V57.4394H40.5309V52.8864H41.685V64.2499ZM32.4902 54.2307H33.6951V60.2993C34.9084 60.2866 36.0709 60.1704 37.1828 59.9505L37.3096 61.0032C36.5698 61.1342 35.868 61.2272 35.2043 61.2822C34.5406 61.3371 33.8811 61.3625 33.2258 61.3583H32.4902V54.2307ZM50.2777 56.2346C50.2777 56.8602 50.4045 57.4817 50.6581 58.0989C50.916 58.7161 51.2711 59.2678 51.7235 59.754C52.18 60.2401 52.6958 60.6058 53.2707 60.851L52.6112 61.7895C51.9475 61.4978 51.3599 61.056 50.8484 60.4642C50.3368 59.8723 49.9479 59.1938 49.6816 58.4286C49.4152 59.2488 49.0263 59.9822 48.5148 60.629C48.0033 61.2758 47.4199 61.7599 46.7646 62.0812L46.0671 61.13C46.6293 60.8679 47.1366 60.4769 47.589 59.9569C48.0455 59.4327 48.4028 58.8429 48.6606 58.1877C48.9227 57.5324 49.0559 56.8814 49.0601 56.2346V55.0297H46.4602V54.0278H52.8649V55.0297H50.2777V56.2346ZM54.298 52.8864H55.5028V64.2499H54.298V52.8864ZM66.635 61.5105H65.4302V60.4198H63.1473V59.5701H65.4302V52.8991H66.635V61.5105ZM57.2753 58.0862C58.7803 58.0735 60.0993 58.046 61.2323 58.0038C62.3652 57.9615 63.4517 57.8748 64.4916 57.7438L64.5677 58.6062C63.718 58.7499 62.7203 58.862 61.5747 58.9423V61.1554H60.3698V59.0057C59.6343 59.0353 58.607 59.0501 57.288 59.0501L57.1358 58.0862H57.2753ZM58.0236 55.3341C58.0236 54.9367 58.1398 54.588 58.3724 54.2878C58.6091 53.9834 58.941 53.7488 59.3679 53.5839C59.7991 53.4148 60.2938 53.3303 60.8518 53.3303C61.4014 53.3303 61.8896 53.4148 62.3166 53.5839C62.7436 53.7488 63.0754 53.9834 63.3122 54.2878C63.5489 54.588 63.6673 54.9367 63.6673 55.3341C63.6673 55.7315 63.5489 56.0803 63.3122 56.3804C63.0754 56.6763 62.7436 56.9067 62.3166 57.0716C61.8896 57.2323 61.4014 57.3126 60.8518 57.3126C60.2938 57.3126 59.8013 57.2323 59.3743 57.0716C58.9473 56.9067 58.6154 56.6763 58.3787 56.3804C58.142 56.0803 58.0236 55.7315 58.0236 55.3341ZM58.7084 60.6734H59.9006V63.0324H66.914V64.0089H58.7084V60.6734ZM59.165 55.3341C59.165 55.5539 59.2348 55.7463 59.3743 55.9112C59.5138 56.076 59.7104 56.2029 59.964 56.2916C60.2219 56.3804 60.5178 56.4248 60.8518 56.4248C61.1731 56.4248 61.4605 56.3804 61.7142 56.2916C61.9678 56.2029 62.1665 56.076 62.3103 55.9112C62.454 55.7463 62.5259 55.5539 62.5259 55.3341C62.5259 55.1101 62.454 54.9156 62.3103 54.7507C62.1665 54.5816 61.9678 54.4527 61.7142 54.3639C61.4605 54.2709 61.1731 54.2265 60.8518 54.2307C60.5178 54.2265 60.2219 54.2709 59.964 54.3639C59.7104 54.4527 59.5138 54.5816 59.3743 54.7507C59.2348 54.9156 59.165 55.1101 59.165 55.3341ZM72.3771 55.778C72.3771 56.4671 72.4976 57.1435 72.7385 57.8072C72.9837 58.4667 73.3262 59.0522 73.7658 59.5637C74.2055 60.0752 74.7107 60.4578 75.2814 60.7115L74.5458 61.6753C73.9117 61.3541 73.3558 60.8911 72.8781 60.2866C72.4003 59.6779 72.0347 58.9803 71.781 58.194C71.5274 59.0268 71.1575 59.7687 70.6713 60.4198C70.1894 61.0666 69.625 61.557 68.9782 61.8909L68.2172 60.9144C68.7922 60.6396 69.3016 60.2338 69.7455 59.6969C70.1936 59.1558 70.5403 58.5428 70.7854 57.8579C71.0349 57.1688 71.1596 56.4755 71.1596 55.778V53.8376H72.3771V55.778ZM74.0258 56.6658H76.5623V52.8864H77.7545V64.2752H76.5623V57.6423H74.0258V56.6658ZM92.8151 62.8421H82.4155V61.8402H86.9939V59.5066H83.6077V53.66H84.8125V55.6131H90.3928V53.66H91.5849V59.5066H88.186V61.8402H92.8151V62.8421ZM90.3928 58.5301V56.5897H84.8125V58.5301H90.3928ZM102.958 64.2499H101.741V52.8864H102.958V64.2499ZM93.6238 61.2061C95.1118 60.4959 96.2427 59.6314 97.0163 58.6125C97.79 57.5937 98.236 56.4121 98.3543 55.0678H94.1691V54.1039H99.5718C99.5718 55.8625 99.1512 57.4246 98.3099 58.7901C97.4729 60.1556 96.1222 61.2864 94.2579 62.1826L93.6238 61.2061Z" fill="#404443"/>
</g>
<path d="M16.6973 84.6457C16.6973 80.5471 20.0198 77.2246 24.1183 77.2246H146.566C150.664 77.2246 153.987 80.5471 153.987 84.6457V106.909C153.987 111.007 150.664 114.33 146.566 114.33H24.1183C20.0198 114.33 16.6973 111.007 16.6973 106.909V84.6457Z" fill="white"/>
<path d="M41.3172 101.305H40.3153V90.0299H41.3172V101.305ZM37.9818 91.2601C37.9818 92.3762 37.7979 93.4204 37.4301 94.3927C37.0623 95.365 36.4852 96.2591 35.6989 97.075C34.9126 97.8909 33.9065 98.5948 32.6805 99.1867L32.1351 98.375C33.2258 97.8592 34.1305 97.2526 34.8492 96.555C35.5679 95.8575 36.1047 95.0775 36.4599 94.2151C36.815 93.3527 36.9925 92.4184 36.9925 91.4123V91.2601H37.9818ZM37.3984 92.0718H32.6551V91.2601H37.3984V92.0718ZM50.1792 91.8308H43.5209V91.0699H50.1792V91.8308ZM46.8564 92.262C47.3891 92.262 47.8605 92.3297 48.2705 92.4649C48.6806 92.6002 48.9977 92.7947 49.2217 93.0483C49.4458 93.302 49.5578 93.6021 49.5578 93.9488C49.5578 94.287 49.4458 94.5808 49.2217 94.8302C48.9977 95.0796 48.6806 95.272 48.2705 95.4073C47.8605 95.5426 47.3891 95.6102 46.8564 95.6102C46.3153 95.6102 45.8418 95.5426 45.436 95.4073C45.0302 95.272 44.7173 95.0796 44.4975 94.8302C44.2777 94.5808 44.1678 94.287 44.1678 93.9488C44.1678 93.6021 44.2777 93.302 44.4975 93.0483C44.7173 92.7947 45.0302 92.6002 45.436 92.4649C45.8418 92.3297 46.3153 92.262 46.8564 92.262ZM46.8564 92.9722C46.5098 92.9638 46.2054 92.9997 45.9433 93.08C45.6812 93.1604 45.4762 93.2745 45.3282 93.4225C45.1802 93.5704 45.1063 93.7459 45.1063 93.9488C45.1063 94.1433 45.1802 94.3124 45.3282 94.4561C45.4762 94.5998 45.6812 94.7097 45.9433 94.7858C46.2054 94.8619 46.5098 94.9 46.8564 94.9C47.2031 94.9 47.5075 94.8619 47.7696 94.7858C48.0317 94.7097 48.2346 94.5998 48.3783 94.4561C48.5221 94.3124 48.5939 94.1433 48.5939 93.9488C48.5939 93.7459 48.5221 93.5704 48.3783 93.4225C48.2346 93.2745 48.0317 93.1604 47.7696 93.08C47.5075 92.9997 47.2031 92.9638 46.8564 92.9722ZM47.3384 91.4884H46.3491V89.9665H47.3384V91.4884ZM47.3384 96.7516H46.3491V95.217H47.3384V96.7516ZM52.386 97.576H51.3841V90.068H52.386V97.576ZM52.386 101.305H51.3841V98.9076H44.7765V98.1086H52.386V101.305ZM43.1405 96.4219C44.5525 96.4219 45.8566 96.3986 47.053 96.3521C48.2494 96.3056 49.3802 96.2105 50.4456 96.0668L50.5217 96.777C49.4225 96.9545 48.279 97.0729 47.0911 97.1321C45.9031 97.1913 44.637 97.2209 43.2927 97.2209L43.1405 96.4219ZM67.6369 99.8588H57.3134V99.0345H67.6369V99.8588ZM62.9317 99.2881H61.9552V96.3077H62.9317V99.2881ZM59.5328 92.8708H65.3921V90.8289H66.3687V96.5994H58.5309V90.8289H59.5328V92.8708ZM65.3921 95.7878V93.6825H59.5328V95.7878H65.3921ZM77.7291 101.305H76.7272V90.0299H77.7291V101.305ZM74.3936 91.2601C74.3936 92.3762 74.2097 93.4204 73.8419 94.3927C73.4741 95.365 72.8971 96.2591 72.1108 97.075C71.3245 97.8909 70.3183 98.5948 69.0923 99.1867L68.547 98.375C69.6377 97.8592 70.5424 97.2526 71.261 96.555C71.9797 95.8575 72.5166 95.0775 72.8717 94.2151C73.2268 93.3527 73.4044 92.4184 73.4044 91.4123V91.2601H74.3936ZM73.8102 92.0718H69.067V91.2601H73.8102V92.0718Z" fill="#404443"/>
<path d="M16.6973 121.751C16.6973 117.653 20.0198 114.33 24.1183 114.33H146.566C150.664 114.33 153.987 117.653 153.987 121.751V144.014C153.987 148.113 150.664 151.435 146.566 151.435H24.1183C20.0198 151.435 16.6973 148.113 16.6973 144.014V121.751Z" fill="white"/>
<path d="M35.8511 130.598C35.8511 131.367 35.7031 132.13 35.4072 132.887C35.1113 133.644 34.716 134.318 34.2214 134.91C33.7268 135.502 33.1836 135.945 32.5917 136.241L31.9956 135.455C32.5283 135.193 33.0271 134.802 33.4922 134.282C33.9572 133.762 34.3292 133.176 34.6082 132.525C34.8872 131.874 35.0267 131.232 35.0267 130.598V128.733H35.8511V130.598ZM36.0287 130.598C36.0287 131.215 36.166 131.832 36.4408 132.449C36.7156 133.067 37.0876 133.614 37.5569 134.092C38.0261 134.569 38.5356 134.931 39.0851 135.176L38.5271 135.962C37.9183 135.683 37.3624 135.269 36.8594 134.719C36.3563 134.17 35.9589 133.536 35.6672 132.817C35.3755 132.098 35.2297 131.359 35.2297 130.598V128.733H36.0287V130.598ZM38.7173 129.127H32.3634V128.302H38.7173V129.127ZM41.2919 138.41H40.29V127.135H41.2919V138.41ZM47.3384 135.316H46.3365V132.804H47.3384V135.316ZM52.386 135.709H51.3841V127.148H52.386V135.709ZM52.665 138.169H44.6497V137.332H52.665V138.169ZM45.6516 137.573H44.6497V134.872H45.6516V137.573ZM43.0263 132.373C44.5736 132.365 45.92 132.342 47.0657 132.303C48.2113 132.265 49.3126 132.179 50.3695 132.043L50.4329 132.766C49.3337 132.944 48.1754 133.06 46.9579 133.115C45.7404 133.17 44.4764 133.193 43.1658 133.185L43.0263 132.373ZM51.6504 134.542H49.0505V133.819H51.6504V134.542ZM46.7296 127.605C47.2792 127.605 47.7632 127.685 48.1818 127.846C48.6003 128.006 48.9279 128.237 49.1646 128.537C49.4014 128.837 49.5197 129.181 49.5197 129.57C49.5197 129.968 49.4014 130.312 49.1646 130.604C48.9279 130.896 48.6003 131.122 48.1818 131.283C47.7632 131.443 47.2792 131.524 46.7296 131.524C46.18 131.524 45.6939 131.443 45.2711 131.283C44.8484 131.122 44.5207 130.896 44.2882 130.604C44.0557 130.312 43.9395 129.968 43.9395 129.57C43.9395 129.181 44.0557 128.837 44.2882 128.537C44.5207 128.237 44.8484 128.006 45.2711 127.846C45.6939 127.685 46.18 127.605 46.7296 127.605ZM46.7296 128.366C46.366 128.357 46.0448 128.404 45.7657 128.505C45.4867 128.607 45.2711 128.75 45.1189 128.936C44.9667 129.122 44.8907 129.334 44.8907 129.57C44.8907 129.807 44.9667 130.019 45.1189 130.205C45.2711 130.391 45.4867 130.534 45.7657 130.636C46.0448 130.737 46.366 130.788 46.7296 130.788C47.0847 130.788 47.4018 130.737 47.6808 130.636C47.9598 130.534 48.1775 130.391 48.3339 130.205C48.4904 130.019 48.5686 129.807 48.5686 129.57C48.5686 129.334 48.4882 129.122 48.3276 128.936C48.167 128.75 47.9492 128.607 47.6745 128.505C47.3997 128.404 47.0847 128.357 46.7296 128.366ZM61.3971 129.266C61.3971 129.799 61.2661 130.295 61.004 130.756C60.7419 131.217 60.3741 131.612 59.9006 131.942C59.4271 132.272 58.8775 132.517 58.2519 132.678L57.8207 131.879C58.3618 131.76 58.8395 131.572 59.2538 131.314C59.6681 131.056 59.9915 130.75 60.224 130.395C60.4565 130.04 60.5728 129.663 60.5728 129.266V129.101H61.3971V129.266ZM61.562 129.266C61.562 129.638 61.6783 129.989 61.9108 130.319C62.1433 130.648 62.4646 130.936 62.8746 131.181C63.2847 131.426 63.7561 131.608 64.2887 131.726L63.8829 132.525C63.2572 132.373 62.7098 132.141 62.2405 131.828C61.7713 131.515 61.4056 131.139 61.1435 130.699C60.8814 130.259 60.7503 129.782 60.7503 129.266V129.101H61.562V129.266ZM64.0731 129.215H58.0616V128.429H64.0731V129.215ZM61.562 128.962H60.5728V127.173H61.562V128.962ZM61.5874 138.08H60.5981V133.591H61.5874V138.08ZM66.6096 138.423H65.6331V127.148H66.6096V138.423ZM57.288 133.477C58.7254 133.477 60.0612 133.453 61.2957 133.407C62.5301 133.36 63.7011 133.269 64.8087 133.134L64.8721 133.857C63.7307 134.043 62.5512 134.166 61.3337 134.225C60.1162 134.284 58.8141 134.314 57.4275 134.314L57.288 133.477ZM78.731 136.939H68.4075V136.115H78.731V136.939ZM74.0005 136.394H73.0239V133.35H74.0005V136.394ZM73.8609 128.771C73.8609 129.532 73.639 130.245 73.1951 130.908C72.7512 131.572 72.1763 132.126 71.4703 132.57C70.7643 133.014 70.0266 133.316 69.2572 133.477L68.8133 132.652C69.4813 132.534 70.1386 132.284 70.7855 131.904C71.4323 131.524 71.9607 131.056 72.3708 130.503C72.7808 129.949 72.9859 129.372 72.9859 128.771V127.909H73.8609V128.771ZM74.0258 128.771C74.0258 129.372 74.2351 129.949 74.6536 130.503C75.0721 131.056 75.6048 131.524 76.2516 131.904C76.8984 132.284 77.5558 132.534 78.2237 132.652L77.7798 133.477C77.0104 133.316 76.2727 133.014 75.5667 132.57C74.8607 132.126 74.2858 131.574 73.8419 130.915C73.398 130.255 73.1761 129.541 73.1761 128.771V127.909H74.0258V128.771Z" fill="#DB3939"/>
</g>
<defs>
<filter id="filter0_d_7894_345607" x="-0.000307083" y="0.000257969" width="170.684" height="171.842" filterUnits="userSpaceOnUse" color-interpolation-filters="sRGB">
<feFlood flood-opacity="0" result="BackgroundImageFix"/>
<feColorMatrix in="SourceAlpha" type="matrix" values="0 0 0 0 0 0 0 0 0 0 0 0 0 0 0 0 0 0 127 0" result="hardAlpha"/>
<feOffset dy="3.71053"/>
<feGaussianBlur stdDeviation="7.42105"/>
<feComposite in2="hardAlpha" operator="out"/>
<feColorMatrix type="matrix" values="0 0 0 0 0.25098 0 0 0 0 0.266667 0 0 0 0 0.262745 0 0 0 0.16 0"/>
<feBlend mode="normal" in2="BackgroundImageFix" result="effect1_dropShadow_7894_345607"/>
<feBlend mode="normal" in="SourceGraphic" in2="effect1_dropShadow_7894_345607" result="shape"/>
</filter>
<filter id="filter1_ii_7894_345607" x="15.7696" y="39.1915" width="139.144" height="38.9607" filterUnits="userSpaceOnUse" color-interpolation-filters="sRGB">
<feFlood flood-opacity="0" result="BackgroundImageFix"/>
<feBlend mode="normal" in="SourceGraphic" in2="BackgroundImageFix" result="shape"/>
<feColorMatrix in="SourceAlpha" type="matrix" values="0 0 0 0 0 0 0 0 0 0 0 0 0 0 0 0 0 0 127 0" result="hardAlpha"/>
<feOffset dx="-0.927631" dy="-0.927631"/>
<feGaussianBlur stdDeviation="0.463816"/>
<feComposite in2="hardAlpha" operator="arithmetic" k2="-1" k3="1"/>
<feColorMatrix type="matrix" values="0 0 0 0 1 0 0 0 0 1 0 0 0 0 1 0 0 0 0.25 0"/>
<feBlend mode="normal" in2="shape" result="effect1_innerShadow_7894_345607"/>
<feColorMatrix in="SourceAlpha" type="matrix" values="0 0 0 0 0 0 0 0 0 0 0 0 0 0 0 0 0 0 127 0" result="hardAlpha"/>
<feOffset dx="0.927631" dy="0.927631"/>
<feGaussianBlur stdDeviation="0.927631"/>
<feComposite in2="hardAlpha" operator="arithmetic" k2="-1" k3="1"/>
<feColorMatrix type="matrix" values="0 0 0 0 0.827451 0 0 0 0 0.847059 0 0 0 0 0.847059 0 0 0 0.15 0"/>
<feBlend mode="normal" in2="effect1_innerShadow_7894_345607" result="effect2_innerShadow_7894_345607"/>
</filter>
</defs>
</svg>
