<svg width="338" height="81" viewBox="0 0 338 81" fill="none" xmlns="http://www.w3.org/2000/svg">
<g filter="url(#filter0_d_7894_345300)">
<rect x="12" y="9" width="261" height="57" rx="15" fill="#F6F7F7" shape-rendering="crispEdges"/>
<rect x="12.375" y="9.375" width="260.25" height="56.25" rx="14.625" stroke="#F6F7F7" stroke-width="0.75" shape-rendering="crispEdges"/>
<g filter="url(#filter1_i_7894_345300)">
<rect x="16.5" y="13.5" width="48" height="48" rx="12" fill="#E5F5F2"/>
<path d="M44.625 33.25C45.2463 33.25 45.75 33.7537 45.75 34.375C45.75 34.9963 45.2463 35.5 44.625 35.5H31.875C31.2537 35.5 30.75 34.9963 30.75 34.375C30.75 33.7537 31.2537 33.25 31.875 33.25H44.625ZM48.875 25.75C49.4963 25.75 50 26.2537 50 26.875C50 27.4963 49.4963 28 48.875 28H31.625C31.0037 28 30.5 27.4963 30.5 26.875C30.5 26.2537 31.0037 25.75 31.625 25.75H48.875Z" fill="#0B6B64"/>
<path d="M36.818 51.155H33.8853V53.6768H33.1361V51.155H30.2357V50.5347H36.818V51.155ZM30.6063 49.3826C31.0521 49.3208 31.463 49.1986 31.839 49.016C32.2176 48.8307 32.5197 48.6051 32.7453 48.3392C32.9709 48.0734 33.0877 47.7954 33.0958 47.5054H30.848V46.8931H36.1976V47.5054H33.9659C33.9686 47.7954 34.0814 48.0734 34.3043 48.3392C34.5299 48.6051 34.832 48.8307 35.2107 49.016C35.5893 49.1986 36.0042 49.3208 36.4554 49.3826L36.1734 49.9868C35.7786 49.925 35.4067 49.8217 35.0576 49.6766C34.7085 49.5289 34.4023 49.3463 34.1391 49.1288C33.8759 48.9086 33.6718 48.6642 33.5268 48.3956C33.3818 48.6642 33.1777 48.9086 32.9145 49.1288C32.6513 49.3463 32.3465 49.5289 32.0001 49.6766C31.6536 49.8217 31.2857 49.925 30.8963 49.9868L30.6063 49.3826ZM41.2211 47.4167V47.5094C41.2157 47.8612 41.2009 48.1942 41.1768 48.5084C41.1553 48.8199 41.1083 49.1677 41.0358 49.5518L40.2784 49.4792C40.3483 49.1221 40.3953 48.7998 40.4194 48.5125C40.4463 48.2251 40.4624 47.9351 40.4678 47.6423H37.5795V47.0139H41.2211V47.4167ZM37.1444 50.1721C37.6573 50.1721 38.1488 50.1667 38.6188 50.156V48.6333H39.3761V50.1318C40.2731 50.0942 41.0385 50.0298 41.6722 49.9385L41.7206 50.4944C41.0519 50.6125 40.3456 50.6918 39.6017 50.7321C38.8578 50.7697 38.0629 50.7898 37.2169 50.7925L37.1444 50.1721ZM38.2401 51.3967H39.0055V52.9114H43.1466V53.5317H38.2401V51.3967ZM42.1315 46.4661H42.913V48.7622H43.9039V49.4067H42.913V51.8882H42.1315V46.4661ZM46.7924 47.5054C46.7924 47.8384 46.8636 48.1566 47.0059 48.4601C47.1509 48.7609 47.3577 49.0267 47.6263 49.2577C47.8975 49.4886 48.2157 49.6646 48.581 49.7854L48.1943 50.3896C47.778 50.2473 47.4168 50.0352 47.1106 49.7532C46.8045 49.4712 46.5695 49.1395 46.4057 48.7582C46.2419 49.1664 46.0042 49.5236 45.6927 49.8297C45.3811 50.1332 45.0146 50.3601 44.5929 50.5105L44.2062 49.9143C44.5741 49.7827 44.8937 49.5947 45.165 49.3503C45.4362 49.1033 45.6443 48.8199 45.7893 48.5004C45.9344 48.1808 46.0082 47.8491 46.0109 47.5054V46.8125H46.7924V47.5054ZM45.2616 51.147H50.152V53.6848H49.3866V51.7673H45.2616V51.147ZM49.3866 46.4661H50.152V50.8005H49.3866V46.4661Z" fill="#0B6B64"/>
</g>
<rect x="67.5" y="13.5" width="48" height="48" rx="12" fill="#FBFCFC"/>
<path d="M91.5 21.25C96.4706 21.25 100.5 25.2794 100.5 30.25C100.5 35.2206 96.4706 39.25 91.5 39.25C86.5294 39.25 82.5 35.2206 82.5 30.25C82.5 25.2794 86.5294 21.25 91.5 21.25ZM91.5 22.75C87.3579 22.75 84 26.1079 84 30.25C84 34.3921 87.3579 37.75 91.5 37.75C95.6421 37.75 99 34.3921 99 30.25C99 26.1079 95.6421 22.75 91.5 22.75ZM91.25 24.375C94.3566 24.375 96.875 26.8934 96.875 30C96.875 33.1066 94.3566 35.625 91.25 35.625C88.1434 35.625 85.625 33.1066 85.625 30C85.625 26.8934 88.1434 24.375 91.25 24.375Z" fill="#656B6B"/>
<path d="M82.5004 48.5527H83.5558V49.1892H82.5004V51.6868H81.735V46.458H82.5004V48.5527ZM77.1508 47.0784H80.3735V47.6987H77.9081V49.8015H78.0733C78.7447 49.8015 79.2952 49.7854 79.7249 49.7532C80.1573 49.7209 80.5856 49.6619 81.0099 49.5759L81.0986 50.1963C80.6232 50.2903 80.1412 50.3547 79.6524 50.3896C79.1636 50.4219 78.5204 50.438 77.7228 50.438H77.1508V47.0784ZM77.9242 51.147H78.6896V52.9114H82.8066V53.5317H77.9242V51.147ZM85.84 46.7078C86.1999 46.7104 86.5235 46.7816 86.8109 46.9213C87.0982 47.0582 87.3238 47.2489 87.4876 47.4933C87.6515 47.7377 87.7334 48.0156 87.7334 48.3271C87.7334 48.6387 87.6515 48.9166 87.4876 49.161C87.3238 49.4054 87.0982 49.5961 86.8109 49.733C86.5235 49.87 86.1999 49.9385 85.84 49.9385C85.4775 49.9385 85.1512 49.87 84.8612 49.733C84.5738 49.5961 84.3482 49.4054 84.1844 49.161C84.0206 48.9166 83.9387 48.6387 83.9387 48.3271C83.9387 48.0156 84.0206 47.7377 84.1844 47.4933C84.3482 47.2489 84.5738 47.0582 84.8612 46.9213C85.1512 46.7816 85.4775 46.7104 85.84 46.7078ZM84.6879 48.3271C84.6879 48.5232 84.7363 48.6964 84.833 48.8468C84.9323 48.9945 85.0693 49.11 85.2439 49.1932C85.4211 49.2765 85.6198 49.3181 85.84 49.3181C86.0603 49.3181 86.2577 49.2765 86.4322 49.1932C86.6068 49.11 86.7437 48.9945 86.8431 48.8468C86.9425 48.6964 86.9921 48.5232 86.9921 48.3271C86.9921 48.1338 86.9425 47.9633 86.8431 47.8156C86.7437 47.6652 86.6054 47.5497 86.4282 47.4691C86.2536 47.3885 86.0576 47.3496 85.84 47.3523C85.6198 47.3496 85.4211 47.3885 85.2439 47.4691C85.0693 47.5497 84.9323 47.6652 84.833 47.8156C84.7363 47.9633 84.6879 48.1338 84.6879 48.3271ZM85.0344 50.4702H89.7797V52.291H85.7998V52.9839H90.0214V53.5962H85.0586V51.719H89.0224V51.0825H85.0344V50.4702ZM89.0144 46.4661H89.7797V50.1399H89.0144V46.4661ZM95.1538 47.7874C95.1565 48.115 95.2277 48.4319 95.3673 48.738C95.507 49.0415 95.7071 49.3114 95.9676 49.5477C96.2308 49.7841 96.5396 49.9653 96.8941 50.0916L96.4751 50.6877C96.0857 50.5374 95.746 50.3198 95.456 50.0352C95.1659 49.7505 94.943 49.4202 94.7873 49.0442C94.6288 49.4658 94.3979 49.8337 94.0944 50.1479C93.7909 50.4595 93.4297 50.6958 93.0108 50.8569L92.5999 50.2527C92.9678 50.1211 93.286 49.9304 93.5546 49.6807C93.8258 49.4282 94.0326 49.1368 94.175 48.8065C94.32 48.4735 94.3938 48.1257 94.3965 47.7632V46.9092H95.1538V47.7874ZM93.9131 51.2517H94.6866V52.9114H98.7874V53.5317H93.9131V51.2517ZM96.3382 48.1177H97.8609V46.4741H98.6263V51.856H97.8609V48.7461H96.3382V48.1177ZM102.691 47.6021H100.604V48.4077H102.61V48.9958H100.604V49.874C101.115 49.8687 101.543 49.8539 101.889 49.8297C102.238 49.8029 102.592 49.7559 102.949 49.6887L103.021 50.3171C102.635 50.3896 102.256 50.4393 101.885 50.4662C101.517 50.4904 101.061 50.5024 100.516 50.5024H100.338H99.8712V46.9817H102.691V47.6021ZM100.822 51.2034H105.728V53.6848H104.971V51.8237H100.822V51.2034ZM103.4 46.603H104.117V48.311H105.003V46.4741H105.728V50.8569H105.003V48.9314H104.117V50.8005H103.4V46.603Z" fill="#656B6B"/>
<rect x="118.5" y="13.5" width="48" height="48" rx="12" fill="#FBFCFC"/>
<path d="M147.5 21C149.571 21 151.25 22.6789 151.25 24.75V35.25C151.25 37.3211 149.571 39 147.5 39H137L136.807 38.9951C134.825 38.8945 133.25 37.2562 133.25 35.25V24.75C133.25 22.7438 134.825 21.1055 136.807 21.0049L137 21H147.5ZM137 22.5C135.757 22.5 134.75 23.5074 134.75 24.75V35.25C134.75 36.4926 135.757 37.5 137 37.5H147.5C148.743 37.5 149.75 36.4926 149.75 35.25V24.75C149.75 23.5074 148.743 22.5 147.5 22.5H137ZM146.671 26.0195C146.937 25.7021 147.41 25.66 147.728 25.9258C148.045 26.1917 148.087 26.665 147.821 26.9824L141.956 33.9824C141.814 34.1524 141.603 34.251 141.381 34.251C141.159 34.2509 140.948 34.1524 140.806 33.9824L136.671 29.0479C136.405 28.7304 136.447 28.2572 136.765 27.9912C137.082 27.7253 137.555 27.7665 137.821 28.084L141.381 32.332L146.671 26.0195Z" fill="#656B6B"/>
<path d="M134.411 50.7683H127.829V50.1479H130.737V49.3665H128.691V46.6353H129.448V47.4167H132.791V46.6353H133.557V49.3665H131.494V50.1479H134.411V50.7683ZM128.562 51.4128H133.605V53.6848H132.832V52.0251H128.562V51.4128ZM132.791 48.7542V47.9888H129.448V48.7542H132.791ZM138.492 47.1025C138.492 47.4167 138.607 47.7189 138.838 48.0089C139.072 48.299 139.386 48.546 139.781 48.7501C140.178 48.9542 140.611 49.0872 141.078 49.1489L140.78 49.7773C140.388 49.7156 140.016 49.6082 139.664 49.4551C139.312 49.302 139.001 49.1127 138.729 48.8871C138.461 48.6588 138.249 48.405 138.093 48.1257C137.937 48.405 137.724 48.6588 137.452 48.8871C137.184 49.1127 136.875 49.302 136.526 49.4551C136.177 49.6055 135.806 49.7129 135.414 49.7773L135.108 49.1489C135.575 49.0872 136.006 48.9556 136.401 48.7542C136.796 48.5527 137.11 48.307 137.344 48.017C137.577 47.7242 137.694 47.4194 137.694 47.1025V46.7078H138.492V47.1025ZM134.794 50.4863H141.376V51.1147H138.443V53.6848H137.694V51.1147H134.794V50.4863ZM146.154 47.7874C146.157 48.115 146.228 48.4319 146.367 48.738C146.507 49.0415 146.707 49.3114 146.968 49.5477C147.231 49.7841 147.54 49.9653 147.894 50.0916L147.475 50.6877C147.086 50.5374 146.746 50.3198 146.456 50.0352C146.166 49.7505 145.943 49.4202 145.787 49.0442C145.629 49.4658 145.398 49.8337 145.094 50.1479C144.791 50.4595 144.43 50.6958 144.011 50.8569L143.6 50.2527C143.968 50.1211 144.286 49.9304 144.555 49.6807C144.826 49.4282 145.033 49.1368 145.175 48.8065C145.32 48.4735 145.394 48.1257 145.397 47.7632V46.9092H146.154V47.7874ZM144.913 51.2517H145.687V52.9114H149.787V53.5317H144.913V51.2517ZM147.338 48.1177H148.861V46.4741H149.626V51.856H148.861V48.7461H147.338V48.1177ZM153.691 47.6021H151.604V48.4077H153.61V48.9958H151.604V49.874C152.115 49.8687 152.543 49.8539 152.889 49.8297C153.238 49.8029 153.592 49.7559 153.949 49.6887L154.021 50.3171C153.635 50.3896 153.256 50.4393 152.885 50.4662C152.517 50.4904 152.061 50.5024 151.516 50.5024H151.338H150.871V46.9817H153.691V47.6021ZM151.822 51.2034H156.728V53.6848H155.971V51.8237H151.822V51.2034ZM154.4 46.603H155.117V48.311H156.003V46.4741H156.728V50.8569H156.003V48.9314H155.117V50.8005H154.4V46.603Z" fill="#656B6B"/>
<rect x="169.5" y="13.5" width="48" height="48" rx="12" fill="#FBFCFC"/>
<path d="M193.5 22.75C195.355 22.7501 196.955 23.3982 198.257 24.6865C199.407 25.8255 200.053 27.1985 200.188 28.7744C201.074 28.9955 201.839 29.4607 202.465 30.1621C203.234 31.0237 203.625 32.0482 203.624 33.2021C203.624 34.4557 203.172 35.5447 202.284 36.4248C201.451 37.25 200.436 37.6926 199.273 37.7441L199.039 37.749H193.67C192.22 37.749 191.045 36.5736 191.045 35.124V31.6152L189.89 32.5967C189.574 32.8647 189.1 32.8256 188.832 32.5098C188.564 32.194 188.603 31.721 188.919 31.4531L191.305 29.4277C191.584 29.1903 191.995 29.1905 192.275 29.4277L194.662 31.4531C194.978 31.7211 195.016 32.1941 194.748 32.5098C194.48 32.8255 194.007 32.8645 193.691 32.5967L192.545 31.623V35.124C192.545 35.7455 193.049 36.249 193.67 36.249H199.04C199.911 36.2494 200.626 35.9561 201.229 35.3594C201.831 34.7625 202.124 34.0578 202.124 33.2021L202.112 32.9131C202.057 32.2511 201.804 31.6748 201.346 31.1611C200.824 30.5763 200.18 30.2432 199.38 30.1514C199.001 30.1079 198.716 29.7865 198.716 29.4053C198.716 27.9592 198.216 26.7567 197.202 25.7529C196.188 24.7488 194.969 24.2501 193.5 24.25C192.311 24.25 191.262 24.5993 190.328 25.3018C189.397 26.0028 188.782 26.9094 188.471 28.0439C188.397 28.312 188.181 28.517 187.909 28.5771C186.997 28.7792 186.276 29.2338 185.718 29.9512C185.154 30.6758 184.875 31.4906 184.875 32.4219L184.88 32.6221C184.925 33.6099 185.301 34.4335 186.021 35.1309C186.795 35.8793 187.711 36.249 188.812 36.249C189.227 36.2491 189.562 36.585 189.562 36.999C189.562 37.4132 189.227 37.749 188.812 37.749C187.329 37.749 186.036 37.2331 184.979 36.21C183.916 35.1823 183.376 33.9045 183.375 32.4229V32.4219C183.375 31.16 183.763 30.02 184.534 29.0293C185.22 28.1486 186.1 27.5451 187.154 27.2256C187.586 25.9629 188.346 24.9157 189.427 24.1025C190.624 23.202 191.99 22.75 193.5 22.75Z" fill="#656B6B"/>
<path d="M179.479 47.8357H178.738V51.1993C179.133 51.1671 179.482 51.1335 179.785 51.0986L179.825 51.6545C179.154 51.7673 178.452 51.8425 177.719 51.8801C176.985 51.915 176.195 51.9338 175.346 51.9365L175.257 51.3C175.44 51.3 175.746 51.2974 176.176 51.292V47.8357H175.435V47.2073H179.479V47.8357ZM176.917 51.2799C177.277 51.2719 177.637 51.2598 177.997 51.2437V47.8357H176.917V51.2799ZM180.204 46.4661H180.97V49.3101H182.13V49.9385H180.97V53.6848H180.204V46.4661ZM184.357 46.7078C184.717 46.7104 185.041 46.7816 185.328 46.9213C185.616 47.0582 185.841 47.2489 186.005 47.4933C186.169 47.7377 186.251 48.0156 186.251 48.3271C186.251 48.6387 186.169 48.9166 186.005 49.161C185.841 49.4054 185.616 49.5961 185.328 49.733C185.041 49.87 184.717 49.9385 184.357 49.9385C183.995 49.9385 183.669 49.87 183.379 49.733C183.091 49.5961 182.866 49.4054 182.702 49.161C182.538 48.9166 182.456 48.6387 182.456 48.3271C182.456 48.0156 182.538 47.7377 182.702 47.4933C182.866 47.2489 183.091 47.0582 183.379 46.9213C183.669 46.7816 183.995 46.7104 184.357 46.7078ZM183.205 48.3271C183.205 48.5232 183.254 48.6964 183.35 48.8468C183.45 48.9945 183.587 49.11 183.761 49.1932C183.939 49.2765 184.137 49.3181 184.357 49.3181C184.578 49.3181 184.775 49.2765 184.95 49.1932C185.124 49.11 185.261 48.9945 185.361 48.8468C185.46 48.6964 185.51 48.5232 185.51 48.3271C185.51 48.1338 185.46 47.9633 185.361 47.8156C185.261 47.6652 185.123 47.5497 184.946 47.4691C184.771 47.3885 184.575 47.3496 184.357 47.3523C184.137 47.3496 183.939 47.3885 183.761 47.4691C183.587 47.5497 183.45 47.6652 183.35 47.8156C183.254 47.9633 183.205 48.1338 183.205 48.3271ZM183.552 50.4702H188.297V52.291H184.317V52.9839H188.539V53.5962H183.576V51.719H187.54V51.0825H183.552V50.4702ZM187.532 46.4661H188.297V50.1399H187.532V46.4661ZM193.123 46.7964C193.438 46.7937 193.725 46.8488 193.985 46.9615C194.246 47.0743 194.462 47.2341 194.634 47.4409C194.806 47.645 194.917 47.8813 194.968 48.1499H196.378V46.4661H197.144V50.3413H196.378V48.7783H194.972C194.924 49.0522 194.814 49.2939 194.642 49.5034C194.47 49.7129 194.253 49.8754 193.99 49.9908C193.729 50.1063 193.44 50.1641 193.123 50.1641C192.758 50.1641 192.432 50.0929 192.145 49.9506C191.857 49.8055 191.633 49.6055 191.472 49.3503C191.311 49.0925 191.23 48.7998 191.23 48.4722C191.23 48.1499 191.311 47.8612 191.472 47.6061C191.633 47.3483 191.857 47.1482 192.145 47.0059C192.435 46.8635 192.761 46.7937 193.123 46.7964ZM191.963 48.4722C191.963 48.6736 192.012 48.8549 192.108 49.016C192.208 49.1744 192.345 49.298 192.519 49.3866C192.696 49.4752 192.898 49.5195 193.123 49.5195C193.344 49.5195 193.54 49.4752 193.712 49.3866C193.886 49.298 194.022 49.1744 194.118 49.016C194.218 48.8575 194.267 48.6763 194.267 48.4722C194.267 48.2681 194.218 48.0868 194.118 47.9283C194.022 47.7699 193.886 47.6477 193.712 47.5618C193.54 47.4758 193.344 47.4329 193.123 47.4329C192.898 47.4329 192.696 47.4758 192.519 47.5618C192.345 47.6477 192.208 47.7699 192.108 47.9283C192.012 48.0868 191.963 48.2681 191.963 48.4722ZM192.439 50.6877H193.196V51.5256H196.378V50.6877H197.144V53.5962H192.439V50.6877ZM196.378 52.9678V52.1299H193.196V52.9678H196.378ZM204.697 52.8228H198.091V52.1782H200.999V50.9133H198.896V48.6172H203.134V47.6021H198.88V46.9736H203.891V49.2295H199.654V50.2849H204.06V50.9133H201.756V52.1782H204.697V52.8228ZM210.905 50.5186H205.877V47.1106H210.84V47.739H206.635V49.8901H210.905V50.5186ZM205.056 52.0977H211.662V52.7341H205.056V52.0977Z" fill="#656B6B"/>
<rect x="220.5" y="13.5" width="48" height="48" rx="12" fill="#FBFCFC"/>
<path d="M249.201 22C250.444 22 251.451 23.0075 251.451 24.25V26.5059C251.949 26.572 252.399 26.7805 252.778 27.1338C253.246 27.5696 253.502 28.1275 253.501 28.7686L253.498 36.21C253.498 36.8508 253.243 37.4087 252.775 37.8447C252.309 38.2795 251.736 38.4975 251.099 38.4971H243.979C242.53 38.4969 241.355 37.3223 241.354 35.873V32.3037L240.294 33.2021C239.978 33.4694 239.505 33.4301 239.237 33.1143C238.97 32.7982 239.009 32.3253 239.325 32.0576L241.653 30.0859C241.933 29.8492 242.343 29.8492 242.623 30.0859L244.952 32.0576C245.268 32.3253 245.307 32.7983 245.04 33.1143C244.772 33.4301 244.298 33.4695 243.982 33.2021L242.854 32.2471V35.873C242.855 36.494 243.359 36.9969 243.979 36.9971H251.099C251.369 36.9974 251.573 36.9154 251.752 36.748C251.886 36.6232 251.957 36.4983 251.984 36.3574L251.998 36.21L252.001 28.7676L251.988 28.6211C251.961 28.4811 251.89 28.3564 251.756 28.2314C251.575 28.0633 251.371 27.9815 251.102 27.9814H244.502C244.313 27.9814 244.132 27.9101 243.993 27.7822L242.559 26.457H237.902C237.633 26.4574 237.429 26.5399 237.248 26.708C237.07 26.874 237.002 27.0401 237.002 27.2441L237 36.21C237 36.4152 237.069 36.5815 237.246 36.7471C237.426 36.9144 237.63 36.997 237.899 36.9971H238.986C239.4 36.9971 239.736 37.3331 239.736 37.7471C239.736 38.1612 239.4 38.497 238.986 38.4971H237.899C237.262 38.497 236.689 38.2788 236.224 37.8447C235.756 37.4091 235.501 36.8516 235.5 36.2109V36.21L235.502 27.2441C235.502 26.603 235.759 26.0458 236.227 25.6104C236.581 25.2811 236.996 25.0752 237.454 24.9951V24.25C237.454 23.0075 238.462 22 239.704 22H249.201ZM239.704 23.5C239.29 23.5 238.954 23.8359 238.954 24.25V24.957H242.852L242.991 24.9697C243.128 24.9957 243.256 25.0604 243.36 25.1562L244.796 26.4814H249.951V24.25C249.951 23.8359 249.615 23.5 249.201 23.5H239.704Z" fill="#656B6B"/>
<path d="M233.877 52.8228H227.271V52.1702H230.171V50.6313H227.851V50.0271H228.93V47.7551H227.835V47.1348H233.273V47.7551H232.169V50.0271H233.249V50.6313H230.928V52.1702H233.877V52.8228ZM231.42 50.0271V47.7551H229.688V50.0271H231.42ZM240.093 50.9214H235.066V47.0623H240.02V47.6826H235.839V48.6575H239.867V49.2617H235.839V50.3091H240.093V50.9214ZM234.236 52.146H240.842V52.7744H234.236V52.146ZM247.163 47.2314H246.115V48.4883H247.13V49.0603H244.867V49.6807H247.783V50.2849H241.201V49.6807H244.101V49.0603H241.837V48.4883H242.86V47.2314H241.805V46.6514H247.163V47.2314ZM241.99 50.8005H246.953V52.428H242.748V53.0322H247.155V53.6123H241.998V51.8882H246.196V51.3564H241.99V50.8005ZM245.35 48.4883V47.2314H243.618V48.4883H245.35ZM254.16 53.7009H253.395V46.4661H254.16V53.7009ZM248.569 47.1187H251.953V49.7532H249.358V51.3323C249.984 51.3296 250.563 51.3094 251.095 51.2719C251.629 51.2343 252.184 51.1685 252.758 51.0745L252.831 51.7029C252.232 51.8022 251.65 51.8707 251.086 51.9083C250.522 51.9459 249.89 51.9661 249.189 51.9688H248.577V49.1409H251.171V47.739H248.569V47.1187ZM258.418 46.9011C258.928 46.9011 259.386 46.9817 259.792 47.1428C260.197 47.304 260.514 47.5295 260.743 47.8196C260.971 48.1069 261.085 48.4399 261.085 48.8186C261.085 49.1731 260.988 49.4886 260.795 49.7653C260.602 50.0392 260.332 50.2594 259.985 50.4259C259.641 50.5897 259.245 50.6904 258.797 50.728V52.146H261.738V52.7825H255.131V52.146H258.04V50.728C257.594 50.6904 257.198 50.5897 256.851 50.4259C256.507 50.2594 256.239 50.0378 256.045 49.7612C255.855 49.4846 255.759 49.1704 255.759 48.8186C255.759 48.4426 255.874 48.1096 256.102 47.8196C256.33 47.5295 256.646 47.304 257.049 47.1428C257.451 46.9817 257.908 46.9011 258.418 46.9011ZM256.501 48.8186C256.501 49.0845 256.583 49.3168 256.746 49.5155C256.91 49.7142 257.137 49.8673 257.427 49.9747C257.717 50.0822 258.048 50.1372 258.418 50.1399C258.791 50.1372 259.123 50.0822 259.413 49.9747C259.703 49.8673 259.93 49.7142 260.094 49.5155C260.26 49.3168 260.344 49.0845 260.344 48.8186C260.344 48.5608 260.26 48.3339 260.094 48.1378C259.93 47.9418 259.702 47.7914 259.409 47.6866C259.119 47.5792 258.789 47.5269 258.418 47.5295C258.05 47.5269 257.72 47.5792 257.427 47.6866C257.137 47.7914 256.91 47.9431 256.746 48.1418C256.583 48.3379 256.501 48.5635 256.501 48.8186Z" fill="#656B6B"/>
</g>
<g filter="url(#filter2_d_7894_345300)">
<rect x="285" y="17.25" width="40.5" height="40.5" rx="20.25" fill="#F6F7F7" shape-rendering="crispEdges"/>
<rect x="285.375" y="17.625" width="39.75" height="39.75" rx="19.875" stroke="#EFF0F0" stroke-width="0.75" shape-rendering="crispEdges"/>
<path d="M305.25 29.25C305.871 29.25 306.375 29.7537 306.375 30.375V36.375H312.375C312.996 36.375 313.5 36.8787 313.5 37.5C313.5 38.1213 312.996 38.625 312.375 38.625H306.375V44.625C306.375 45.2463 305.871 45.75 305.25 45.75C304.629 45.75 304.125 45.2463 304.125 44.625V38.625H298.125C297.504 38.625 297 38.1213 297 37.5C297 36.8787 297.504 36.375 298.125 36.375H304.125V30.375C304.125 29.7537 304.629 29.25 305.25 29.25Z" fill="#404443"/>
</g>
<defs>
<filter id="filter0_d_7894_345300" x="0" y="0" width="285" height="81" filterUnits="userSpaceOnUse" color-interpolation-filters="sRGB">
<feFlood flood-opacity="0" result="BackgroundImageFix"/>
<feColorMatrix in="SourceAlpha" type="matrix" values="0 0 0 0 0 0 0 0 0 0 0 0 0 0 0 0 0 0 127 0" result="hardAlpha"/>
<feOffset dy="3"/>
<feGaussianBlur stdDeviation="6"/>
<feComposite in2="hardAlpha" operator="out"/>
<feColorMatrix type="matrix" values="0 0 0 0 0.937255 0 0 0 0 0.941176 0 0 0 0 0.941176 0 0 0 0.3 0"/>
<feBlend mode="normal" in2="BackgroundImageFix" result="effect1_dropShadow_7894_345300"/>
<feBlend mode="normal" in="SourceGraphic" in2="effect1_dropShadow_7894_345300" result="shape"/>
</filter>
<filter id="filter1_i_7894_345300" x="16.5" y="13.5" width="48.75" height="48.75" filterUnits="userSpaceOnUse" color-interpolation-filters="sRGB">
<feFlood flood-opacity="0" result="BackgroundImageFix"/>
<feBlend mode="normal" in="SourceGraphic" in2="BackgroundImageFix" result="shape"/>
<feColorMatrix in="SourceAlpha" type="matrix" values="0 0 0 0 0 0 0 0 0 0 0 0 0 0 0 0 0 0 127 0" result="hardAlpha"/>
<feOffset dx="0.75" dy="0.75"/>
<feGaussianBlur stdDeviation="0.75"/>
<feComposite in2="hardAlpha" operator="arithmetic" k2="-1" k3="1"/>
<feColorMatrix type="matrix" values="0 0 0 0 0.827451 0 0 0 0 0.847059 0 0 0 0 0.847059 0 0 0 0.2 0"/>
<feBlend mode="normal" in2="shape" result="effect1_innerShadow_7894_345300"/>
</filter>
<filter id="filter2_d_7894_345300" x="273" y="8.25" width="64.5" height="64.5" filterUnits="userSpaceOnUse" color-interpolation-filters="sRGB">
<feFlood flood-opacity="0" result="BackgroundImageFix"/>
<feColorMatrix in="SourceAlpha" type="matrix" values="0 0 0 0 0 0 0 0 0 0 0 0 0 0 0 0 0 0 127 0" result="hardAlpha"/>
<feOffset dy="3"/>
<feGaussianBlur stdDeviation="6"/>
<feComposite in2="hardAlpha" operator="out"/>
<feColorMatrix type="matrix" values="0 0 0 0 0.937255 0 0 0 0 0.941176 0 0 0 0 0.941176 0 0 0 0.52 0"/>
<feBlend mode="normal" in2="BackgroundImageFix" result="effect1_dropShadow_7894_345300"/>
<feBlend mode="normal" in="SourceGraphic" in2="effect1_dropShadow_7894_345300" result="shape"/>
</filter>
</defs>
</svg>
