<svg width="141" height="13" viewBox="0 0 141 13" fill="none" xmlns="http://www.w3.org/2000/svg">
<path opacity="0.6" d="M140.188 6.62805C140.509 6.30735 140.509 5.78738 140.188 5.46667L134.962 0.240454C134.641 -0.0802526 134.121 -0.0802526 133.801 0.240454C133.48 0.561161 133.48 1.08113 133.801 1.40184L138.446 6.04736L133.801 10.6929C133.48 11.0136 133.48 11.5336 133.801 11.8543C134.121 12.175 134.641 12.175 134.962 11.8543L140.188 6.62805ZM0 6.04736L0 6.86858H0.830997V6.04736V5.22614H0L0 6.04736ZM2.49299 6.04736V6.86858H4.15499V6.04736V5.22614H2.49299V6.04736ZM5.81698 6.04736V6.86858H7.47898V6.04736V5.22614H5.81698V6.04736ZM9.14097 6.04736V6.86858H10.803V6.04736V5.22614H9.14097V6.04736ZM12.465 6.04736V6.86858H14.127V6.04736V5.22614H12.465V6.04736ZM15.789 6.04736V6.86858H17.4509V6.04736V5.22614H15.789V6.04736ZM19.1129 6.04736V6.86858H20.7749V6.04736V5.22614H19.1129V6.04736ZM22.4369 6.04736V6.86858H24.0989V6.04736V5.22614H22.4369V6.04736ZM25.7609 6.04736V6.86858H27.4229V6.04736V5.22614H25.7609V6.04736ZM29.0849 6.04736V6.86858H30.7469V6.04736V5.22614H29.0849V6.04736ZM32.4089 6.04736V6.86858H34.0709V6.04736V5.22614H32.4089V6.04736ZM35.7329 6.04736V6.86858H37.3949V6.04736V5.22614H35.7329V6.04736ZM39.0569 6.04736V6.86858H40.7189V6.04736V5.22614H39.0569V6.04736ZM42.3809 6.04736V6.86858H44.0429V6.04736V5.22614H42.3809V6.04736ZM45.7049 6.04736V6.86858H47.3669V6.04736V5.22614H45.7049V6.04736ZM49.0288 6.04736V6.86858H50.6908V6.04736V5.22614H49.0288V6.04736ZM52.3528 6.04736V6.86858H54.0148V6.04736V5.22614H52.3528V6.04736ZM55.6768 6.04736V6.86858H57.3388V6.04736V5.22614H55.6768V6.04736ZM59.0008 6.04736V6.86858H60.6628V6.04736V5.22614H59.0008V6.04736ZM62.3248 6.04736V6.86858H63.9868V6.04736V5.22614H62.3248V6.04736ZM65.6488 6.04736V6.86858H67.3108V6.04736V5.22614H65.6488V6.04736ZM68.9728 6.04736V6.86858H70.6348V6.04736V5.22614H68.9728V6.04736ZM72.2968 6.04736V6.86858H73.9588V6.04736V5.22614H72.2968V6.04736ZM75.6208 6.04736V6.86858H77.2828V6.04736V5.22614H75.6208V6.04736ZM78.9448 6.04736V6.86858H80.6068V6.04736V5.22614H78.9448V6.04736ZM82.2687 6.04736V6.86858H83.9307V6.04736V5.22614H82.2687V6.04736ZM85.5927 6.04736V6.86858H87.2547V6.04736V5.22614H85.5927V6.04736ZM88.9167 6.04736V6.86858H90.5787V6.04736V5.22614H88.9167V6.04736ZM92.2407 6.04736V6.86858H93.9027V6.04736V5.22614H92.2407V6.04736ZM95.5647 6.04736V6.86858H97.2267V6.04736V5.22614H95.5647V6.04736ZM98.8887 6.04736V6.86858H100.551V6.04736V5.22614H98.8887V6.04736ZM102.213 6.04736V6.86858H103.875V6.04736V5.22614H102.213V6.04736ZM105.537 6.04736V6.86858H107.199V6.04736V5.22614H105.537V6.04736ZM108.861 6.04736V6.86858H110.523V6.04736V5.22614H108.861V6.04736ZM112.185 6.04736V6.86858H113.847V6.04736V5.22614H112.185V6.04736ZM115.509 6.04736V6.86858H117.171V6.04736V5.22614H115.509V6.04736ZM118.833 6.04736V6.86858H120.495V6.04736V5.22614H118.833V6.04736ZM122.157 6.04736V6.86858H123.819V6.04736V5.22614H122.157V6.04736ZM125.481 6.04736V6.86858H127.143V6.04736V5.22614H125.481V6.04736ZM128.805 6.04736V6.86858H130.467V6.04736V5.22614H128.805V6.04736ZM132.129 6.04736V6.86858H133.791V6.04736V5.22614H132.129V6.04736ZM135.453 6.04736V6.86858H137.115V6.04736V5.22614H135.453V6.04736ZM138.777 6.04736V6.86858H139.608V6.04736V5.22614H138.777V6.04736Z" fill="url(#paint0_linear_10002_15885)"/>
<defs>
<linearGradient id="paint0_linear_10002_15885" x1="139.608" y1="6.54736" x2="0" y2="6.54736" gradientUnits="userSpaceOnUse">
<stop stop-color="#0E8179"/>
<stop offset="1" stop-color="#0E8179" stop-opacity="0.8"/>
</linearGradient>
</defs>
</svg>
