<svg preserveAspectRatio="none" width="100%" height="100%" overflow="visible" style="display: block;" viewBox="0 0 102.75 16.5689" fill="none" xmlns="http://www.w3.org/2000/svg">
<path id="Vector 3937" opacity="0.5" d="M1.125 7.15946C0.50368 7.15946 0 7.66314 0 8.28446C0 8.90578 0.50368 9.40946 1.125 9.40946V8.28446V7.15946ZM102.42 9.07995C102.86 8.64061 102.86 7.9283 102.42 7.48896L95.261 0.329505C94.8217 -0.109835 94.1094 -0.109835 93.6701 0.329505C93.2307 0.768845 93.2307 1.48116 93.6701 1.9205L100.034 8.28446L93.6701 14.6484C93.2307 15.0878 93.2307 15.8001 93.6701 16.2394C94.1094 16.6787 94.8217 16.6787 95.261 16.2394L102.42 9.07995ZM1.125 8.28446V9.40946H3.05769V8.28446V7.15946H1.125V8.28446ZM6.92308 8.28446V9.40946H10.7885V8.28446V7.15946H6.92308V8.28446ZM14.6538 8.28446V9.40946H18.5192V8.28446V7.15946H14.6538V8.28446ZM22.3846 8.28446V9.40946H26.25V8.28446V7.15946H22.3846V8.28446ZM30.1154 8.28446V9.40946H33.9808V8.28446V7.15946H30.1154V8.28446ZM37.8462 8.28446V9.40946H41.7115V8.28446V7.15946H37.8462V8.28446ZM45.5769 8.28446V9.40946H49.4423V8.28446V7.15946H45.5769V8.28446ZM53.3077 8.28446V9.40946H57.1731V8.28446V7.15946H53.3077V8.28446ZM61.0385 8.28446V9.40946H64.9038V8.28446V7.15946H61.0385V8.28446ZM68.7692 8.28446V9.40946H72.6346V8.28446V7.15946H68.7692V8.28446ZM76.5 8.28446V9.40946H80.3654V8.28446V7.15946H76.5V8.28446ZM84.2308 8.28446V9.40946H88.0962V8.28446V7.15946H84.2308V8.28446ZM91.9615 8.28446V9.40946H95.8269V8.28446V7.15946H91.9615V8.28446ZM99.6923 8.28446V9.40946H101.625V8.28446V7.15946H99.6923V8.28446Z" fill="var(--stroke-0, white)"/>
</svg>
